<svg width="272" height="272" viewBox="0 0 272 272" fill="none" xmlns="http://www.w3.org/2000/svg">
<g filter="url(#filter0_d)">
<path d="M131.901 24.4597C153.152 24.4671 173.924 30.7717 191.59 42.5765C209.256 54.3812 223.023 71.1559 231.151 90.7795C239.278 110.403 241.401 131.995 237.25 152.824C233.1 173.653 222.863 192.785 207.833 207.8C192.804 222.815 173.657 233.039 152.813 237.18C131.97 241.32 110.366 239.192 90.733 231.062C71.1001 222.933 54.32 209.169 42.5142 191.509C30.7084 173.85 25.9459 156 24.8152 139H8.71463e-05C1.32088 160 7.51162 183.499 22.0068 205.226C36.502 226.953 57.1198 243.895 81.2517 253.909C105.384 263.923 131.945 266.558 157.576 261.482C183.207 256.406 206.756 243.846 225.243 225.391C243.73 206.936 256.324 183.417 261.433 157.807C266.541 132.197 263.934 105.649 253.942 81.5204C243.949 57.3919 227.02 36.7674 205.296 22.2565C183.573 7.74547 158.03 1.68222e-05 131.901 0V24.5721V24.4597Z" transform="translate(4.01855)" fill="#F2994A"/>
<path d="M24.8337 139C23.5329 120.5 27.3863 103.777 32.7888 90.7449C38.1914 77.7133 46.1099 65.873 56.0921 55.9004C66.0742 45.9278 77.9245 38.0182 90.966 32.6236C104.008 27.2289 117.985 24.4548 132.099 24.4597V0C97.0952 -2.25357e-05 63.5227 13.8865 38.757 38.6089C13.9914 63.3313 -1.98275 98.5 0.198652 139H24.8337Z" transform="translate(4)" fill="#DADADA"/>
</g>
<path d="M38.4609 33.9844C36.2109 38.0391 34.1953 41.8477 32.4141 45.4102C30.6328 48.9492 29.0625 52.4531 27.7031 55.9219C26.3438 59.3672 25.1836 62.8828 24.2227 66.4688C23.2617 70.0312 22.4766 73.875 21.8672 78H10.2656C10.9219 74.0859 11.7891 70.3125 12.8672 66.6797C13.9453 63.0469 15.1875 59.5312 16.5938 56.1328C18.0234 52.7109 19.5938 49.3828 21.3047 46.1484C23.0391 42.9141 24.8672 39.75 26.7891 36.6562H3.375V27.5859H38.4609V33.9844ZM56.4961 68.7891H77.8711V78H44.332V74.2031C44.332 71.625 44.7656 69.3164 45.6328 67.2773C46.5 65.2148 47.5898 63.375 48.9023 61.7578C50.2148 60.1172 51.6445 58.6758 53.1914 57.4336C54.7617 56.168 56.25 55.0312 57.6562 54.0234C59.1328 52.9688 60.4219 51.9609 61.5234 51C62.6484 50.0391 63.5859 49.0898 64.3359 48.1523C65.1094 47.1914 65.6836 46.2305 66.0586 45.2695C66.4336 44.2852 66.6211 43.2422 66.6211 42.1406C66.6211 39.9844 66.0117 38.3555 64.793 37.2539C63.5742 36.1523 61.7109 35.6016 59.2031 35.6016C54.8672 35.6016 50.7188 37.3242 46.7578 40.7695V30.9961C51.1406 28.1602 56.0859 26.7422 61.5938 26.7422C64.1484 26.7422 66.4336 27.082 68.4492 27.7617C70.4883 28.418 72.2109 29.3672 73.6172 30.6094C75.0234 31.8516 76.0898 33.3633 76.8164 35.1445C77.5664 36.9023 77.9414 38.8711 77.9414 41.0508C77.9414 43.3711 77.5781 45.4336 76.8516 47.2383C76.1484 49.043 75.1992 50.6836 74.0039 52.1602C72.832 53.6367 71.4727 54.9961 69.9258 56.2383C68.3789 57.457 66.7734 58.6406 65.1094 59.7891C63.9844 60.5859 62.8945 61.3828 61.8398 62.1797C60.8086 62.9531 59.8945 63.7266 59.0977 64.5C58.3008 65.25 57.668 65.9883 57.1992 66.7148C56.7305 67.4414 56.4961 68.1328 56.4961 68.7891ZM97.9453 53.1445C94.3594 53.1445 91.4648 52.0078 89.2617 49.7344C87.082 47.4609 85.9922 44.4023 85.9922 40.5586C85.9922 36.3633 87.1523 33.0352 89.4727 30.5742C91.8164 28.1133 94.9336 26.8828 98.8242 26.8828C102.551 26.8828 105.457 27.9961 107.543 30.2227C109.652 32.4492 110.707 35.5781 110.707 39.6094C110.707 43.7578 109.547 47.0508 107.227 49.4883C104.906 51.9258 101.812 53.1445 97.9453 53.1445ZM98.6133 33.0703C95.1914 33.0703 93.4805 35.4492 93.4805 40.207C93.4805 44.707 95.1094 46.957 98.3672 46.957C101.695 46.957 103.359 44.6133 103.359 39.9258C103.359 35.3555 101.777 33.0703 98.6133 33.0703ZM134.754 27.5859L101.918 78H93.3398L126.105 27.5859H134.754ZM129.34 78.7031C125.754 78.7031 122.859 77.5664 120.656 75.293C118.477 73.0195 117.387 69.9609 117.387 66.1172C117.387 61.9219 118.547 58.5938 120.867 56.1328C123.211 53.6719 126.328 52.4414 130.219 52.4414C133.969 52.4414 136.887 53.543 138.973 55.7461C141.059 57.9492 142.102 61.0664 142.102 65.0977C142.102 69.2461 140.941 72.5508 138.621 75.0117C136.301 77.4727 133.207 78.7031 129.34 78.7031ZM129.902 58.6289C126.504 58.6289 124.805 61.0078 124.805 65.7656C124.805 70.2656 126.457 72.5156 129.762 72.5156C133.09 72.5156 134.754 70.1719 134.754 65.4844C134.754 63.3047 134.309 61.6172 133.418 60.4219C132.527 59.2266 131.355 58.6289 129.902 58.6289Z" transform="translate(63 84)" fill="#444444"/>
<defs>
<filter id="filter0_d" x="0" y="0" width="272" height="272" filterUnits="userSpaceOnUse" color-interpolation-filters="sRGB">
<feFlood flood-opacity="0" result="BackgroundImageFix"/>
<feColorMatrix in="SourceAlpha" type="matrix" values="0 0 0 0 0 0 0 0 0 0 0 0 0 0 0 0 0 0 255 0"/>
<feOffset dy="4"/>
<feGaussianBlur stdDeviation="2"/>
<feColorMatrix type="matrix" values="0 0 0 0 0 0 0 0 0 0 0 0 0 0 0 0 0 0 0.25 0"/>
<feBlend mode="normal" in2="BackgroundImageFix" result="effect1_dropShadow"/>
<feBlend mode="normal" in="SourceGraphic" in2="effect1_dropShadow" result="shape"/>
</filter>
</defs>
</svg>
