<svg width="100" height="100" viewBox="0 0 100 100" fill="none" xmlns="http://www.w3.org/2000/svg">
<path d="M50 0C44.4771 0 40 4.47708 40 10C40 15.5229 44.4771 20 50 20C55.5206 19.9946 59.9946 15.5206 60 10C60 4.47708 55.5229 0 50 0ZM50 16.6667C46.3181 16.6667 43.3333 13.6819 43.3333 10C43.3333 6.31812 46.3181 3.33333 50 3.33333C53.6819 3.33333 56.6667 6.31812 56.6667 10C56.6667 13.6819 53.6819 16.6667 50 16.6667Z" fill="black"/>
<path d="M56.6667 21.6666H56.2733L55.9217 21.8416C52.1923 23.6985 47.8077 23.6985 44.0783 21.8416L43.7267 21.6666H43.3333C38.7333 21.672 35.0054 25.4 35 30V40C35 42.7614 37.2385 45 40 45H60C62.7615 45 65 42.7614 65 40V30C64.9946 25.4 61.2667 21.672 56.6667 21.6666ZM61.6667 40C61.6667 40.9204 60.9204 41.6666 60 41.6666H40C39.0796 41.6666 38.3333 40.9204 38.3333 40V30C38.3338 27.3766 40.3615 25.1995 42.9783 25.0133C47.4315 27.08 52.5688 27.08 57.0217 25.0133C59.6383 25.1995 61.6663 27.3766 61.6667 30V40Z" fill="black"/>
<path d="M85 55C79.4771 55 75 59.4771 75 65C75 70.5229 79.4771 75 85 75C90.5229 75 95 70.5229 95 65C94.9946 59.4794 90.5206 55.0054 85 55ZM85 71.6667C81.3181 71.6667 78.3333 68.6819 78.3333 65C78.3333 61.3181 81.3181 58.3333 85 58.3333C88.6819 58.3333 91.6667 61.3181 91.6667 65C91.6667 68.6819 88.6819 71.6667 85 71.6667Z" fill="black"/>
<path d="M91.6667 76.6666H91.2733L90.9217 76.8333C87.1923 78.69 82.8077 78.69 79.0783 76.8333L78.7267 76.6666H78.3333C73.7333 76.672 70.0054 80.4 70 85V95C70 97.7614 72.2385 100 75 100H95C97.7615 100 100 97.7614 100 95V85C99.9946 80.4 96.2667 76.672 91.6667 76.6666ZM96.6667 95C96.6667 95.9204 95.9204 96.6666 95 96.6666H75C74.0796 96.6666 73.3333 95.9204 73.3333 95V85C73.3338 82.3766 75.3615 80.1995 77.9783 80.0133C82.4315 82.08 87.5685 82.08 92.0217 80.0133C94.6385 80.1995 96.6663 82.3766 96.6667 85V95Z" fill="black"/>
<path d="M15 55C9.47708 55 5 59.4771 5 65C5 70.5229 9.47708 75 15 75C20.5229 75 25 70.5229 25 65C24.9946 59.4794 20.5206 55.0054 15 55ZM15 71.6667C11.3181 71.6667 8.33333 68.6819 8.33333 65C8.33333 61.3181 11.3181 58.3333 15 58.3333C18.6819 58.3333 21.6667 61.3181 21.6667 65C21.6667 68.6819 18.6819 71.6667 15 71.6667Z" fill="black"/>
<path d="M21.6667 76.6666H21.2733L20.9217 76.8333C17.1923 78.69 12.8077 78.69 9.07833 76.8333L8.72667 76.6666H8.33333C3.73333 76.672 0.00541667 80.4 0 85V95C0 97.7614 2.23854 100 5 100H25C27.7615 100 30 97.7614 30 95V85C29.9946 80.4 26.2667 76.672 21.6667 76.6666ZM26.6667 95C26.6667 95.9204 25.9204 96.6666 25 96.6666H5C4.07958 96.6666 3.33333 95.9204 3.33333 95V85C3.33375 82.3766 5.36146 80.1995 7.97833 80.0133C12.4315 82.08 17.5685 82.08 22.0217 80.0133C24.6385 80.1995 26.6663 82.3766 26.6667 85V95Z" fill="black"/>
<path d="M66.5358 84.6408C66.535 84.6389 66.5342 84.637 66.5333 84.6349C66.1725 83.788 65.1935 83.3941 64.3469 83.7549C56.8208 86.9091 48.4625 87.4845 40.5752 85.3916L42.1352 84.9333C43.019 84.6745 43.5256 83.7487 43.2669 82.8649C43.0081 81.9812 42.0823 81.4745 41.1985 81.7333L34.5319 83.6883C34.5069 83.6883 34.4885 83.7166 34.4652 83.7249C34.3108 83.7824 34.1658 83.8628 34.0352 83.9633C33.9773 83.9945 33.9217 84.0295 33.8685 84.0683C33.6927 84.2251 33.5533 84.4185 33.4602 84.6349C33.3698 84.8528 33.3267 85.0874 33.3335 85.3233C33.3742 85.5489 33.4298 85.7716 33.5002 85.9899C33.5102 86.0133 33.5002 86.0399 33.5185 86.0633L36.8519 92.4416C37.2781 93.2581 38.2854 93.5745 39.1019 93.1483C39.9183 92.722 40.2348 91.7147 39.8085 90.8983L38.4519 88.3049C47.4131 90.9987 57.0342 90.4751 65.6502 86.8249C66.4977 86.4664 66.8944 85.4885 66.5358 84.6408Z" fill="black"/>
<path d="M94.5117 43.8216C93.8608 43.171 92.8058 43.171 92.155 43.8216L89.7967 46.18C88.4167 31.5821 79.1485 18.9141 65.6533 13.18C64.8065 12.8191 63.8275 13.2131 63.4667 14.06C63.1058 14.9068 63.4998 15.8858 64.3467 16.2466C76.4529 21.3918 84.8683 32.636 86.3917 45.7016L84.5117 43.8216C83.8496 43.182 82.7946 43.2004 82.155 43.8625C81.5313 44.5083 81.5313 45.5323 82.155 46.1783L87.155 51.1783C87.805 51.83 88.8604 51.8314 89.5121 51.1812C89.5131 51.1802 89.5142 51.1791 89.515 51.1783L94.515 46.1783C95.1648 45.5266 95.1633 44.4716 94.5117 43.8216Z" fill="black"/>
<path d="M36.6183 14.4316C36.6129 14.3343 36.5985 14.2379 36.575 14.1433C36.575 14.1283 36.5567 14.1183 36.55 14.1016C36.5433 14.0849 36.55 14.0733 36.55 14.0599C36.5046 13.9789 36.4521 13.9018 36.3933 13.8299C36.3394 13.7322 36.2756 13.6401 36.2033 13.5549C36.1048 13.4676 35.9956 13.3933 35.8783 13.3333C35.8198 13.2835 35.7573 13.2383 35.6917 13.1983L29.025 10.1533C28.1735 9.80369 27.1998 10.2106 26.8502 11.062C26.5196 11.8672 26.8644 12.7914 27.6417 13.1833L31.0933 14.7616C18.099 21.716 9.99062 35.2616 9.99999 49.9999C9.99999 50.9204 10.7462 51.6666 11.6667 51.6666C12.5871 51.6666 13.3333 50.9204 13.3333 49.9999C13.325 37.0222 20.1877 25.0099 31.3717 18.4266L30.1667 20.9449C29.7694 21.7735 30.1175 22.7672 30.945 23.1666C31.1698 23.2764 31.4165 23.3335 31.6667 23.3333C32.3067 23.3324 32.8896 22.9651 33.1667 22.3883L36.5 15.4333C36.5 15.4166 36.5 15.3983 36.5133 15.3816C36.5567 15.2676 36.5869 15.1491 36.6033 15.0283C36.6319 14.9385 36.6531 14.8466 36.6667 14.7533C36.661 14.6447 36.645 14.537 36.6183 14.4316Z" fill="black"/>
</svg>
