<svg width="50" height="50" viewBox="0 0 50 50" fill="none" xmlns="http://www.w3.org/2000/svg">
<path d="M25 40V49H1L14.4 35.6C15.7904 36.9949 17.4424 38.1015 19.2614 38.8566C21.0804 39.6117 23.0305 40.0002 25 40Z" fill="white" stroke="black" stroke-width="1.5" stroke-linejoin="round"/>
<path d="M14.4 35.6L1 49V13C1 13.164 1 13.324 1 13.484C1 13.588 1 13.692 1.02 13.796V13.84C1.02 13.908 1.02 13.976 1.02 14.044C1.02 14.112 1.02 14.068 1.02 14.08C1.02 14.196 1.04 14.308 1.056 14.42C1.072 14.532 1.076 14.596 1.092 14.684C1.09677 14.7554 1.10748 14.8263 1.124 14.896C1.124 14.896 1.124 14.932 1.124 14.948C1.14115 15.0343 1.1666 15.1186 1.2 15.2C1.19812 15.2266 1.19812 15.2534 1.2 15.28C1.20789 15.3503 1.22126 15.4198 1.24 15.488V15.54V15.596C1.264 15.736 1.3 15.872 1.336 15.996C1.372 16.12 1.428 16.344 1.48 16.516V16.584C1.52 16.708 1.56 16.828 1.604 16.948V16.972L1.76 17.2C1.816 17.352 1.876 17.504 1.94 17.652C2.004 17.8 2.08 17.976 2.156 18.132C2.16795 18.1659 2.18407 18.1981 2.204 18.228C2.252 18.332 2.304 18.436 2.36 18.536C2.396 18.6153 2.43605 18.6928 2.48 18.768C2.564 18.916 2.648 19.06 2.736 19.204C2.824 19.348 2.94 19.532 3.048 19.692L3.316 20.092C3.368 20.164 3.42 20.236 3.48 20.304C3.58 20.44 3.684 20.572 3.796 20.704C3.908 20.836 3.98 20.924 4.08 21.028C4.0926 21.0493 4.10885 21.0683 4.128 21.084C4.22 21.188 4.316 21.288 4.416 21.388L4.468 21.44C4.524 21.496 4.576 21.552 4.632 21.6C4.68931 21.6627 4.75078 21.7215 4.816 21.776C4.876 21.836 4.94 21.892 5.004 21.948L5.3 22.208L5.424 22.308L5.704 22.528C5.788 22.592 5.872 22.656 5.96 22.716C6.056 22.788 6.156 22.86 6.256 22.924C6.356 22.988 6.536 23.112 6.68 23.196C6.71587 23.221 6.75328 23.2437 6.792 23.264C6.908 23.336 7.024 23.404 7.144 23.468C7.264 23.532 7.38 23.6 7.504 23.66L7.772 23.796C7.904 23.86 8.044 23.924 8.172 23.98L8.396 24.076L8.688 24.192H8.732L8.924 24.264H8.948L9.1 24.316L9.2 24.4H9.244C9.33418 24.4348 9.42634 24.4641 9.52 24.488L9.604 24.512H9.652C9.764 24.5467 9.88 24.5787 10 24.608C10 24.736 10 24.86 10 25.008C10.0008 26.9761 10.3899 28.9248 11.1449 30.7423C11.8999 32.5598 13.0061 34.2106 14.4 35.6Z" fill="white" stroke="black" stroke-width="1.5" stroke-linejoin="round"/>
<path d="M49.0001 36.9999C49.0017 38.5759 48.6919 40.1368 48.0886 41.5927C47.4852 43.0487 46.6001 44.371 45.4841 45.4839L35.6001 35.5999C38.3252 32.885 39.9008 29.2253 40.0001 25.3799C40.1601 25.4199 40.3241 25.4679 40.4801 25.5159C40.7761 25.6039 41.0681 25.7039 41.3521 25.8159L41.5201 25.8839C41.5413 25.8884 41.5616 25.8965 41.5801 25.9079L41.8161 26.0079C42.1623 26.1574 42.5002 26.3256 42.8281 26.5119C42.9378 26.5678 43.0446 26.6292 43.1481 26.6959C43.2681 26.7639 43.3881 26.8359 43.5001 26.9119L43.7121 27.0519C43.9081 27.1799 44.1121 27.3159 44.2801 27.4519L44.4201 27.5599L44.5881 27.6959C44.6841 27.7719 44.7801 27.8519 44.8721 27.9359C44.9242 27.9766 44.9737 28.0207 45.0201 28.0679C45.1241 28.1559 45.2241 28.2519 45.3241 28.3519L45.5161 28.5399C45.7081 28.7279 45.8921 28.9399 46.0641 29.1279C46.1121 29.1799 46.1601 29.2359 46.2041 29.2919L46.3521 29.4719C46.4125 29.5404 46.4686 29.6125 46.5201 29.6879C46.6761 29.8799 46.8161 30.0879 46.9521 30.2839C47.0881 30.4799 47.1521 30.5839 47.2481 30.7399C47.2801 30.7919 47.3121 30.8399 47.3401 30.8919C47.3681 30.9439 47.4441 31.0679 47.4881 31.1559C47.5442 31.2476 47.595 31.3424 47.6401 31.4399C47.6961 31.5399 47.7481 31.6439 47.7961 31.7479C47.8921 31.9346 47.9801 32.1266 48.0601 32.3239C48.1201 32.4639 48.1801 32.6119 48.2321 32.7559C48.2405 32.7739 48.2472 32.7927 48.2521 32.8119C48.2921 32.9079 48.3241 33.0039 48.3561 33.0999C48.3881 33.1959 48.4441 33.3479 48.4801 33.4759C48.5161 33.6039 48.5801 33.8199 48.6241 33.9959C48.6681 34.1719 48.7041 34.3079 48.7361 34.4639C48.7681 34.6199 48.7841 34.6799 48.8001 34.7879C48.8201 34.8839 48.8361 34.9759 48.8481 35.0719C48.8633 35.1336 48.8727 35.1965 48.8761 35.2599C48.8921 35.3479 48.9041 35.4359 48.9121 35.5239C48.9121 35.6319 48.9401 35.7399 48.9481 35.8519C48.9561 35.9639 48.9481 36.0039 48.9481 36.0799C48.9522 36.0957 48.9522 36.1122 48.9481 36.1279C48.952 36.1544 48.952 36.1814 48.9481 36.2079C48.9481 36.2679 48.9481 36.3279 48.9481 36.3879C48.9961 36.6239 49.0001 36.7999 49.0001 36.9999Z" fill="white" stroke="black" stroke-width="1.5" stroke-miterlimit="10"/>
<path d="M48.9999 37V49L45.4839 45.484C46.5999 44.3711 47.485 43.0487 48.0884 41.5928C48.6917 40.1368 49.0015 38.576 48.9999 37Z" fill="white" stroke="black" stroke-width="1.5" stroke-linejoin="round"/>
<path d="M49 49H37C38.576 49.0016 40.1368 48.6919 41.5928 48.0885C43.0487 47.4851 44.3711 46.6 45.484 45.484L49 49Z" fill="white" stroke="black" stroke-width="1.5" stroke-linejoin="round"/>
<path d="M45.484 45.484C44.3711 46.5999 43.0487 47.4851 41.5928 48.0884C40.1368 48.6918 38.576 49.0016 37 49H25V40C26.9695 40.0002 28.9196 39.6117 30.7386 38.8566C32.5576 38.1015 34.2096 36.9949 35.6 35.6L45.484 45.484Z" fill="white" stroke="black" stroke-width="1.5" stroke-miterlimit="10"/>
<path d="M25 25L14.4 35.6C13.0051 34.2096 11.8984 32.5576 11.1434 30.7386C10.3883 28.9196 9.99977 26.9695 10 25C10 24.872 10 24.748 10 24.6C10.148 24.64 10.304 24.676 10.456 24.708H10.5L10.644 24.74C10.792 24.772 10.944 24.8 11.096 24.82L11.236 24.84H11.268C11.3827 24.8587 11.4987 24.8747 11.616 24.888L11.836 24.912H11.956C12.076 24.912 12.2 24.912 12.324 24.936H12.468C12.64 24.936 12.812 24.936 12.988 24.936L25 25Z" fill="white" stroke="black" stroke-width="1.5" stroke-miterlimit="10"/>
<path d="M21.4841 21.484L25.0001 25H13.0001C12.8241 25 12.6522 25 12.4801 25H12.3361C12.2121 25 12.0881 25 11.9681 24.976H11.8482L11.6281 24.952C11.5135 24.952 11.3975 24.936 11.2802 24.904H11.2402L11.1002 24.884C10.9482 24.884 10.7962 24.836 10.6482 24.804L10.5042 24.772H10.4602C10.3082 24.74 10.1522 24.704 10.0042 24.664C10.0912 20.8038 11.6661 17.1265 14.4001 14.4L21.4841 21.484Z" fill="white" stroke="black" stroke-width="1.5" stroke-miterlimit="10"/>
<path d="M24.9999 25V40C23.0304 40.0002 21.0803 39.6117 19.2613 38.8566C17.4423 38.1016 15.7903 36.9949 14.3999 35.6L24.9999 25Z" fill="white" stroke="black" stroke-width="1.5" stroke-miterlimit="10"/>
<path d="M35.6 35.6C34.2096 36.9949 32.5576 38.1016 30.7386 38.8566C28.9196 39.6117 26.9695 40.0002 25 40V25L28.516 28.516L35.6 35.6Z" fill="white" stroke="black" stroke-width="1.5" stroke-miterlimit="10"/>
<path d="M40 25.38C39.9007 29.2254 38.3251 32.8851 35.6 35.6L28.516 28.516L25 25H37H37.4H37.676H37.884C38.072 25 38.26 25.032 38.448 25.056C38.636 25.08 38.76 25.096 38.912 25.12L39.272 25.18C39.508 25.26 39.752 25.316 40 25.38Z" fill="white" stroke="black" stroke-width="1.5" stroke-miterlimit="10"/>
<path d="M49.0001 1.00003V37C49.0001 36.812 49.0001 36.624 49.0001 36.44C49.0001 36.38 49.0001 36.32 49.0001 36.26C49.004 36.2335 49.004 36.2065 49.0001 36.18C49.0042 36.1643 49.0042 36.1478 49.0001 36.132C49.0001 36.056 49.0001 35.98 49.0001 35.904C49.0001 35.828 48.9801 35.684 48.9641 35.576C48.9641 35.488 48.9521 35.4 48.9281 35.312C48.9247 35.2486 48.9153 35.1857 48.9001 35.124C48.9001 35.028 48.8721 34.936 48.8521 34.84C48.8521 34.732 48.8121 34.624 48.7881 34.516C48.7641 34.408 48.7201 34.204 48.6761 34.048C48.6321 33.892 48.5841 33.7 48.5321 33.528C48.4801 33.356 48.4521 33.276 48.4081 33.152C48.3641 33.028 48.3441 32.96 48.3041 32.864C48.2992 32.8448 48.2925 32.826 48.2841 32.808C48.2321 32.664 48.1761 32.516 48.1121 32.376C48.0481 32.236 47.9441 31.976 47.8481 31.8C47.8001 31.696 47.7481 31.592 47.6921 31.492C47.647 31.3945 47.5962 31.2997 47.5401 31.208C47.4961 31.12 47.4441 31.032 47.3921 30.944C47.3401 30.856 47.3321 30.844 47.3001 30.792C47.2081 30.64 47.1081 30.488 47.0041 30.336C46.9001 30.184 46.7281 29.936 46.5721 29.74C46.5206 29.6646 46.4645 29.5925 46.4041 29.524L46.2561 29.344C46.2121 29.288 46.1641 29.232 46.1161 29.18C45.9441 28.976 45.7601 28.78 45.5681 28.592C45.5081 28.5254 45.444 28.4626 45.3761 28.404C45.2761 28.304 45.1761 28.208 45.0721 28.12C45.0257 28.0729 44.9762 28.0288 44.9241 27.988C44.8321 27.904 44.7361 27.824 44.6401 27.748L44.4721 27.612L44.3321 27.504C44.1481 27.36 43.9601 27.224 43.7641 27.104L43.5521 26.964C43.4401 26.888 43.3201 26.816 43.2001 26.748C43.0966 26.6814 42.9898 26.6199 42.8801 26.564C42.5354 26.3554 42.1788 26.1671 41.8121 26L41.5761 25.9C41.5576 25.8886 41.5373 25.8805 41.5161 25.876L41.3481 25.808C41.0641 25.696 40.7721 25.596 40.4761 25.508C40.3201 25.46 40.1561 25.412 39.9961 25.372C39.9961 25.244 39.9961 25.12 39.9961 24.972C39.9902 21.0046 38.409 17.2019 35.6001 14.4L49.0001 1.00003Z" fill="white" stroke="black" stroke-width="1.5" stroke-linejoin="round"/>
<path d="M39.9999 25C39.9999 25.128 39.9999 25.252 39.9999 25.4C39.7559 25.336 39.5119 25.28 39.2639 25.232L38.9039 25.172C38.7519 25.148 38.5959 25.124 38.4399 25.108C38.2839 25.092 38.0639 25.064 37.8759 25.052H37.6679H37.3919H36.9919H24.9919L35.5999 14.4C36.9948 15.7904 38.1015 17.4424 38.8566 19.2614C39.6116 21.0804 40.0002 23.0305 39.9999 25Z" fill="white" stroke="black" stroke-width="1.5" stroke-miterlimit="10"/>
<path d="M24.9999 10V25L21.4839 21.484L14.3999 14.4C15.7903 13.0051 17.4423 11.8984 19.2613 11.1434C21.0803 10.3883 23.0304 9.99977 24.9999 10Z" fill="white" stroke="black" stroke-width="1.5" stroke-miterlimit="10"/>
<path d="M25.0001 1.00001V10C23.0306 9.99977 21.0805 10.3883 19.2615 11.1434C17.4425 11.8984 15.7905 13.0051 14.4001 14.4L4.51611 4.51601C5.62898 3.40003 6.95136 2.51493 8.40731 1.91154C9.86326 1.30815 11.4241 0.998378 13.0001 1.00001H25.0001Z" fill="white" stroke="black" stroke-width="1.5" stroke-miterlimit="10"/>
<path d="M14.3999 14.4001C11.6748 17.115 10.0992 20.7746 9.99989 24.6201C9.87989 24.5907 9.76389 24.5587 9.65189 24.5241H9.60389L9.51989 24.5001L9.24789 24.4001H9.19989L9.13989 24.3801L8.98789 24.3281H8.96389L8.77189 24.2561H8.72789L8.43589 24.1401L8.21589 24.0001C8.07989 23.9441 7.93989 23.8801 7.81589 23.8161L7.54789 23.6801C7.42256 23.6187 7.30256 23.5547 7.18789 23.4881C7.06789 23.4241 6.95189 23.3561 6.83589 23.2841C6.79717 23.2638 6.75977 23.241 6.72389 23.2161C6.57989 23.1321 6.43989 23.0401 6.29989 22.9441C6.15989 22.8481 6.09989 22.8081 6.00389 22.7361C5.91589 22.6761 5.83189 22.6121 5.74789 22.5481L5.46789 22.3281L5.34389 22.2281L5.04789 21.9681C4.98389 21.9121 4.91989 21.8561 4.85989 21.7961C4.79468 21.7416 4.73321 21.6828 4.67589 21.6201C4.61989 21.5721 4.56789 21.5161 4.51189 21.4601L4.45989 21.4081C4.35989 21.3081 4.26389 21.2081 4.17189 21.1041C4.15275 21.0883 4.1365 21.0694 4.12389 21.0481C3.99989 20.9201 3.89189 20.8001 3.79989 20.7001C3.70789 20.6001 3.58389 20.4401 3.48389 20.3001C3.42389 20.2321 3.37189 20.1601 3.31989 20.0881L3.05189 19.6881C2.94389 19.5281 2.83989 19.3641 2.73989 19.2001C2.63989 19.0361 2.56789 18.9121 2.48389 18.7641C2.43995 18.6888 2.3999 18.6114 2.36389 18.5321C2.30789 18.4321 2.25589 18.3281 2.20789 18.2241C2.18797 18.1942 2.17184 18.1619 2.15989 18.1281C2.08256 17.9707 2.01056 17.8107 1.94389 17.6481C1.87989 17.5001 1.81989 17.3481 1.76389 17.1961L1.67989 16.9641V16.9401C1.63589 16.8201 1.59589 16.7001 1.55589 16.5761V16.5081C1.50389 16.3361 1.45589 16.1641 1.41189 15.9881C1.36789 15.8121 1.33989 15.7161 1.31589 15.5881V15.5321V15.4801C1.29716 15.4119 1.28378 15.3423 1.27589 15.2721C1.2484 15.2505 1.22296 15.2263 1.19989 15.2001C1.18078 15.1293 1.1674 15.057 1.1599 14.9841C1.1599 14.9841 1.1599 14.9481 1.1599 14.9321C1.14337 14.8624 1.13267 14.7915 1.1279 14.7201C1.1119 14.6321 1.0999 14.5441 1.0919 14.4561C1.0919 14.3441 1.0639 14.2321 1.0559 14.1161C1.0559 14.1161 1.0559 14.0921 1.0559 14.0801C1.0559 14.0681 1.0559 13.9441 1.0559 13.8761V13.8321C1.0559 13.7281 1.0559 13.6241 1.0359 13.5201C1.0359 13.3601 1.0359 13.2001 1.0359 13.0361C1.03427 11.46 1.34404 9.89921 1.94743 8.44326C2.55081 6.98731 3.43592 5.66492 4.55189 4.55206L14.3999 14.4001Z" fill="white" stroke="black" stroke-width="1.5" stroke-miterlimit="10"/>
<path d="M25.0001 25H13.0001C12.8241 25 12.6522 25 12.4801 25H12.3361C12.2121 25 12.0881 25 11.9681 24.976H11.8482L11.6281 24.952C11.5135 24.952 11.3975 24.936 11.2802 24.904H11.2402L11.1002 24.884C10.9482 24.884 10.7962 24.836 10.6482 24.804L10.5042 24.772H10.4602C10.3082 24.74 10.1522 24.704 10.0042 24.664C10.0912 20.8038 11.6661 17.1265 14.4001 14.4L21.4841 21.484L25.0001 25Z" fill="white" stroke="black" stroke-width="1.5" stroke-miterlimit="10"/>
<path d="M13 1.00001C11.424 0.998378 9.86315 1.30815 8.4072 1.91154C6.95125 2.51493 5.62886 3.40003 4.516 4.51601L1 1.00001H13Z" fill="white" stroke="black" stroke-width="1.5" stroke-linejoin="round"/>
<path d="M4.51601 4.51603C3.40003 5.62889 2.51493 6.95128 1.91154 8.40723C1.30815 9.86318 0.998378 11.424 1.00001 13V1.00003L4.51601 4.51603Z" fill="white" stroke="black" stroke-width="1.5" stroke-linejoin="round"/>
<path d="M35.6 14.4L25 25V10C26.9695 9.99977 28.9196 10.3883 30.7386 11.1434C32.5576 11.8984 34.2096 13.0051 35.6 14.4Z" fill="white" stroke="black" stroke-width="1.5" stroke-miterlimit="10"/>
<path d="M49 1.00003L35.6 14.4C34.2096 13.0051 32.5576 11.8985 30.7386 11.1434C28.9196 10.3884 26.9695 9.9998 25 10V1.00003H49Z" fill="white" stroke="black" stroke-width="1.5" stroke-linejoin="round"/>
</svg>
