<svg width="52" height="52" viewBox="0 0 52 52" fill="none" xmlns="http://www.w3.org/2000/svg">
<circle cx="26" cy="26" r="26" fill="#F2994A"/>
<circle cx="26" cy="26" r="26" fill="url(#paint0_linear)"/>
<path d="M4 1.62929V1.49351C3.95556 0.859901 3.91111 0 2.75555 0C1.55555 0 0.0444444 0.543095 0 1.13145V10.4998H1.55556V25.0276C1.55556 25.6613 2.08889 26.1591 2.75555 26.1591C3.42222 26.1591 3.95556 25.6613 3.95556 25.0276V24.9824L4 1.62929Z" transform="translate(42 12.4028)" fill="#F4F4F4"/>
<path d="M4.26667 -3.45291e-07H3.77778V6.2456H3.15556V-3.45291e-07H2.48889V6.2456H1.86667V-3.45291e-07H1.24444V6.2456H0.622222V-3.45291e-07H0V7.78437C0 8.73478 0.444444 9.59469 1.06667 10.0473V24.5298C1.06667 25.2992 1.55556 25.8875 2.17778 25.8875C2.8 25.8875 3.28889 25.2992 3.28889 24.5298V10.0925C3.91111 9.63994 4.35556 8.78004 4.35556 7.82963V-3.45291e-07H4.26667Z" transform="translate(6 12.3123)" fill="#F4F4F4"/>
<path d="M11.4667 23.3531C5.15556 23.3531 -3.39084e-07 18.1032 -3.39084e-07 11.6766C-3.39084e-07 5.24992 5.15556 3.45291e-07 11.4667 3.45291e-07C17.7778 3.45291e-07 22.9333 5.24992 22.9333 11.6766C22.9333 18.1032 17.7778 23.3531 11.4667 23.3531Z" transform="translate(14.3555 14.0771)" fill="#F4F4F4"/>
<path d="M14.4889 -1.72645e-07C6.48889 -1.72645e-07 0 6.60766 0 14.7541C0 22.9005 6.48889 29.5082 14.4889 29.5082C22.4889 29.5082 28.9778 22.8553 28.9778 14.7541C28.9778 6.65292 22.4889 -1.72645e-07 14.4889 -1.72645e-07ZM14.4889 27.8789C7.37778 27.8789 1.6 21.9954 1.6 14.7541C1.6 7.51282 7.37778 1.62929 14.4889 1.62929C21.6 1.62929 27.3778 7.51282 27.3778 14.7541C27.3778 21.9954 21.6 27.8789 14.4889 27.8789Z" transform="translate(11.3333 11)" fill="#F4F4F4"/>
<defs>
<linearGradient id="paint0_linear" x2="1" gradientUnits="userSpaceOnUse" gradientTransform="translate(52) scale(52) rotate(90)">
<stop stop-color="#F2C94C"/>
<stop offset="0.701657" stop-color="#F2994A"/>
<stop offset="1" stop-color="#F2994A"/>
</linearGradient>
</defs>
</svg>
