<svg width="52" height="52" viewBox="0 0 52 52" fill="none" xmlns="http://www.w3.org/2000/svg">
<path id="Fill 210.1" fill-rule="evenodd" clip-rule="evenodd" d="M25.6 0C11.4608 0 0 11.4561 0 25.5894C0 39.7211 11.4608 51.1788 25.6 51.1788C39.7375 51.1788 51.1999 39.7211 51.1999 25.5894C51.1999 11.4561 39.7375 0 25.6 0ZM42 25.9778C42 27.0599 41.8898 28.1404 41.6735 29.1937C41.4625 30.222 41.15 31.2315 40.7406 32.1965C40.3406 33.1445 39.8445 34.058 39.2648 34.9099C38.6937 35.7565 38.0358 36.5507 37.3131 37.2746C36.5888 37.9955 35.7919 38.6515 34.9458 39.225C34.0911 39.8007 33.1762 40.2961 32.2277 40.698C31.2613 41.1052 30.2494 41.4173 29.2221 41.6279C28.1674 41.8448 27.0829 41.9556 25.9993 41.9556C24.9149 41.9556 23.8304 41.8448 22.7773 41.6279C21.7483 41.4173 20.7365 41.1052 19.7708 40.698C18.8224 40.2961 17.9067 39.8007 17.052 39.225C16.2058 38.6516 15.4089 37.9955 14.6862 37.2746C13.9628 36.5507 13.3049 35.7565 12.733 34.9099C12.1564 34.058 11.6595 33.1444 11.2579 32.1965C10.8485 31.2315 10.5352 30.2219 10.3235 29.1937C10.1094 28.1404 10 27.0599 10 25.9778C10 24.895 10.1093 23.8121 10.3235 22.7611C10.5353 21.7329 10.8485 20.7218 11.258 19.7583C11.6595 18.8097 12.1565 17.8953 12.733 17.0433C13.3049 16.1961 13.9628 15.4034 14.6863 14.6786C15.409 13.9577 16.2059 13.3032 17.052 12.7306C17.9067 12.1525 18.8224 11.6571 19.7709 11.2545C20.7366 10.8464 21.7483 10.5336 22.7773 10.3246C23.8305 10.1092 24.9149 10 25.9993 10C27.083 10 28.1674 10.1092 29.2221 10.3246C30.2495 10.5337 31.2613 10.8465 32.2278 11.2545C33.1762 11.6571 34.0911 12.1525 34.9459 12.7306C35.792 13.3032 36.589 13.9577 37.3132 14.6786C38.0359 15.4034 38.6937 16.1961 39.2648 17.0433C39.8445 17.8953 40.3406 18.8097 40.7406 19.7583C41.15 20.7218 41.4625 21.7329 41.6735 22.7611C41.8898 23.8121 42 24.895 42 25.9778ZM20.1693 13.6364C16.3589 15.4331 13.515 18.9392 12.6282 23.1645C12.9885 23.1677 18.6825 23.2395 25.243 21.4988C22.878 17.3031 20.3514 13.8791 20.1693 13.6364ZM26.3751 23.5999C19.3396 25.7032 12.5884 25.5518 12.3462 25.5425C12.3423 25.6892 12.3353 25.8311 12.3353 25.9778C12.3353 29.483 13.6595 32.6786 15.8362 35.0948C15.8315 35.0878 19.5708 28.4634 26.9446 26.0824C27.1227 26.0231 27.304 25.97 27.4837 25.9185C27.1408 25.1431 26.7665 24.366 26.3751 23.5999ZM35.0232 15.7374C32.6175 13.6192 29.4588 12.3343 25.9992 12.3343C24.889 12.3343 23.8116 12.4685 22.7795 12.7166C22.9842 12.9913 25.5508 16.3912 27.8876 20.6758C33.0434 18.7457 34.9895 15.7873 35.0232 15.7374ZM28.415 28.1794C28.3846 28.1895 28.3541 28.1982 28.3244 28.2091C20.2624 31.0156 17.6296 36.6714 17.6011 36.7332C19.9208 38.5345 22.8304 39.6213 25.9993 39.6213C27.8915 39.6213 29.6939 39.2366 31.3339 38.54C31.1315 37.3479 30.3377 33.1694 28.415 28.1794ZM33.6349 37.2933C36.703 35.2259 38.882 31.943 39.4898 28.1404C39.2085 28.0499 35.3857 26.8414 30.9753 27.5475C32.7676 32.4657 33.4958 36.4711 33.6349 37.2933ZM28.9393 22.7089C29.2565 23.3596 29.5636 24.0218 29.8472 24.6874C29.948 24.9262 30.0464 25.1602 30.1425 25.3942C34.8365 24.8044 39.4609 25.7968 39.6586 25.8373C39.6274 22.6028 38.4687 19.6342 36.5515 17.3102C36.5257 17.3468 34.3342 20.5088 28.9393 22.7089Z" fill="#444444"/>
</svg>
