<svg width="56" height="56" viewBox="0 0 56 56" fill="none" xmlns="http://www.w3.org/2000/svg">
<path fill-rule="evenodd" clip-rule="evenodd" d="M0 25.59C0 11.457 11.4615 0 25.6 0C39.7385 0 51.2 11.457 51.2 25.59C51.2 39.723 39.7385 51.18 25.6 51.18C11.4615 51.18 0 39.723 0 25.59Z" transform="translate(2 2)" fill="white" stroke="#E6E6E6" stroke-width="4"/>
<path fill-rule="evenodd" clip-rule="evenodd" d="M0 25.59C0 11.457 11.4615 0 25.6 0C39.7385 0 51.2 11.457 51.2 25.59C51.2 39.723 39.7385 51.18 25.6 51.18C11.4615 51.18 0 39.723 0 25.59Z" transform="translate(2 2)" fill="white"/>
<path fill-rule="evenodd" clip-rule="evenodd" d="M32 15.9778C32 17.0599 31.8898 18.1404 31.6735 19.1937C31.4625 20.222 31.15 21.2315 30.7406 22.1965C30.3406 23.1445 29.8445 24.058 29.2648 24.9099C28.6937 25.7565 28.0358 26.5507 27.3131 27.2746C26.5888 27.9955 25.7919 28.6515 24.9458 29.225C24.0911 29.8007 23.1762 30.2961 22.2277 30.698C21.2613 31.1052 20.2494 31.4173 19.2221 31.6279C18.1674 31.8448 17.0829 31.9556 15.9993 31.9556C14.9149 31.9556 13.8304 31.8448 12.7773 31.6279C11.7483 31.4173 10.7365 31.1052 9.77085 30.698C8.82238 30.2961 7.90667 29.8007 7.05196 29.225C6.20582 28.6516 5.40891 27.9955 4.68621 27.2746C3.96276 26.5507 3.30488 25.7565 2.73298 24.9099C2.15639 24.058 1.65945 23.1444 1.2579 22.1965C0.848452 21.2315 0.535199 20.2219 0.323461 19.1937C0.109407 18.1404 0 17.0599 0 15.9778C0 14.895 0.109344 13.8121 0.323524 12.7611C0.535261 11.7329 0.848514 10.7218 1.25796 9.75831C1.65952 8.80965 2.15645 7.89533 2.73304 7.04334C3.30494 6.19612 3.96282 5.40342 4.68628 4.67864C5.40897 3.95773 6.20589 3.30324 7.05202 2.7306C7.90673 2.15246 8.82245 1.65712 9.77091 1.25452C10.7366 0.846415 11.7483 0.533613 12.7773 0.324558C13.8305 0.109249 14.9149 0 15.9993 0C17.083 0 18.1674 0.109249 19.2221 0.324558C20.2495 0.533676 21.2613 0.846477 22.2278 1.25452C23.1762 1.65706 24.0911 2.15246 24.9459 2.7306C25.792 3.30324 26.589 3.95773 27.3132 4.67864C28.0359 5.40342 28.6937 6.19612 29.2648 7.04334C29.8445 7.89533 30.3406 8.80972 30.7406 9.75831C31.15 10.7218 31.4625 11.7329 31.6735 12.7611C31.8898 13.8121 32 14.895 32 15.9778ZM10.1693 3.63635C6.35891 5.43312 3.51501 8.93915 2.62823 13.1645C2.98846 13.1677 8.6825 13.2395 15.243 11.4988C12.878 7.30311 10.3514 3.87905 10.1693 3.63635ZM16.3751 13.5999C9.33957 15.7032 2.5884 15.5518 2.34623 15.5425C2.34228 15.6892 2.33527 15.8311 2.33527 15.9778C2.33527 19.483 3.65955 22.6786 5.83623 25.0948C5.83153 25.0878 9.57084 18.4634 16.9446 16.0824C17.1227 16.0231 17.304 15.97 17.4837 15.9185C17.1408 15.1431 16.7665 14.366 16.3751 13.5999ZM25.0232 5.73733C22.6175 3.61914 19.4588 2.33429 15.9992 2.33429C14.889 2.33429 13.8116 2.46849 12.7795 2.71657C12.9842 2.99122 15.5508 6.39114 17.8876 10.6757C23.0434 8.74565 24.9895 5.78724 25.0232 5.73733ZM18.415 18.1794C18.3846 18.1895 18.3541 18.1982 18.3244 18.2091C10.2624 21.0156 7.62962 26.6714 7.60114 26.7332C9.92084 28.5345 12.8304 29.6213 15.9993 29.6213C17.8915 29.6213 19.6939 29.2366 21.3339 28.54C21.1315 27.3479 20.3377 23.1694 18.415 18.1794ZM23.6349 27.2933C26.703 25.2259 28.882 21.943 29.4898 18.1404C29.2085 18.0499 25.3857 16.8414 20.9753 17.5475C22.7676 22.4657 23.4958 26.4711 23.6349 27.2933ZM18.9393 12.7089C19.2565 13.3596 19.5636 14.0218 19.8472 14.6874C19.948 14.9262 20.0464 15.1602 20.1425 15.3942C24.8365 14.8044 29.4609 15.7968 29.6586 15.8373C29.6274 12.6028 28.4687 9.63424 26.5515 7.31018C26.5257 7.34676 24.3342 10.5088 18.9393 12.7089Z" transform="translate(12 12)" fill="#444444"/>
</svg>
