<svg width="56" height="56" viewBox="0 0 56 56" version="1.1" xmlns="http://www.w3.org/2000/svg" xmlns:xlink="http://www.w3.org/1999/xlink">
<title>email-light</title>
<desc>Created using Figma</desc>
<g id="Canvas" transform="translate(882 -545)">
<g id="email-light">
<g id="LinkedIN">
<use xlink:href="#path0_fill" transform="translate(-880 547)" fill="#FFFFFF"/>
<use xlink:href="#path1_stroke" transform="translate(-880 547)" fill="#E6E6E6"/>
</g>
<g id="LinkedIN">
<use xlink:href="#path0_fill" transform="translate(-880 547)" fill="#FFFFFF"/>
</g>
<g id="Shape">
<use xlink:href="#path2_fill" transform="translate(-867 562)" fill="#444444"/>
</g>
</g>
</g>
<defs>
<path id="path0_fill" fill-rule="evenodd" d="M 0 25.59C 0 11.457 11.4615 0 25.6 0C 39.7385 0 51.2 11.457 51.2 25.59C 51.2 39.723 39.7385 51.18 25.6 51.18C 11.4615 51.18 0 39.723 0 25.59Z"/>
<path id="path1_stroke" d="M 2 25.59C 2 12.5623 12.5653 2 25.6 2L 25.6 -2C 10.3577 -2 -2 10.3517 -2 25.59L 2 25.59ZM 25.6 2C 38.6347 2 49.2 12.5623 49.2 25.59L 53.2 25.59C 53.2 10.3517 40.8423 -2 25.6 -2L 25.6 2ZM 49.2 25.59C 49.2 38.6177 38.6347 49.18 25.6 49.18L 25.6 53.18C 40.8423 53.18 53.2 40.8283 53.2 25.59L 49.2 25.59ZM 25.6 49.18C 12.5653 49.18 2 38.6177 2 25.59L -2 25.59C -2 40.8283 10.3577 53.18 25.6 53.18L 25.6 49.18Z"/>
<path id="path2_fill" fill-rule="evenodd" d="M 22.5 0L 2.5 0C 1.125 0 0.0125 1.125 0.0125 2.5L 0 17.5C 0 18.875 1.125 20 2.5 20L 22.5 20C 23.875 20 25 18.875 25 17.5L 25 2.5C 25 1.125 23.875 0 22.5 0L 22.5 0ZM 22.5 17.5L 2.5 17.5L 2.5 5L 12.5 11.25L 22.5 5L 22.5 17.5L 22.5 17.5ZM 12.5 8.75L 2.5 2.5L 22.5 2.5L 12.5 8.75L 12.5 8.75Z"/>
</defs>
</svg>
