<svg width="56" height="56" viewBox="0 0 56 56" version="1.1" xmlns="http://www.w3.org/2000/svg" xmlns:xlink="http://www.w3.org/1999/xlink">
<title>github-light</title>
<desc>Created using Figma</desc>
<g id="Canvas" transform="translate(821 -548)">
<g id="github-light">
<g id="LinkedIN">
<use xlink:href="#path0_fill" transform="translate(-819 550)" fill="#FFFFFF"/>
<use xlink:href="#path1_stroke" transform="translate(-819 550)" fill="#E6E6E6"/>
</g>
<g id="LinkedIN">
<use xlink:href="#path0_fill" transform="translate(-819 550)" fill="#FFFFFF"/>
</g>
<g id="Path">
<use xlink:href="#path2_fill" transform="translate(-806 565)" fill="#444444"/>
</g>
</g>
</g>
<defs>
<path id="path0_fill" fill-rule="evenodd" d="M 0 25.59C 0 11.457 11.4615 0 25.6 0C 39.7385 0 51.2 11.457 51.2 25.59C 51.2 39.723 39.7385 51.18 25.6 51.18C 11.4615 51.18 0 39.723 0 25.59Z"/>
<path id="path1_stroke" d="M 2 25.59C 2 12.5623 12.5653 2 25.6 2L 25.6 -2C 10.3577 -2 -2 10.3517 -2 25.59L 2 25.59ZM 25.6 2C 38.6347 2 49.2 12.5623 49.2 25.59L 53.2 25.59C 53.2 10.3517 40.8423 -2 25.6 -2L 25.6 2ZM 49.2 25.59C 49.2 38.6177 38.6347 49.18 25.6 49.18L 25.6 53.18C 40.8423 53.18 53.2 40.8283 53.2 25.59L 49.2 25.59ZM 25.6 49.18C 12.5653 49.18 2 38.6177 2 25.59L -2 25.59C -2 40.8283 10.3577 53.18 25.6 53.18L 25.6 49.18Z"/>
<path id="path2_fill" fill-rule="evenodd" d="M 16.4384 20.6331C 16.4384 20.6331 14.7072 20.8426 12.8 20.8426C 10.8928 20.8426 9.13918 20.6491 9.13918 20.6491C 4.68319 20.1421 0 18.4212 0 10.7364C 0 8.54688 0.780799 6.75722 2.064 5.3546C 1.8592 4.84761 1.1696 2.80846 2.2608 0.0464053C 2.2608 0.0464053 3.94559 -0.492571 7.77919 2.10315C 9.37918 1.65854 11.096 1.43623 12.8016 1.42823C 14.5056 1.43623 16.2224 1.65854 17.8256 2.10315C 21.656 -0.492571 23.3376 0.0464053 23.3376 0.0464053C 24.432 2.80846 23.744 4.84761 23.5376 5.3546C 24.8224 6.75722 25.6 8.54688 25.6 10.7364C 25.6 18.4404 20.9088 20.1373 16.4384 20.6331"/>
</defs>
</svg>
