<svg width="52" height="52" viewBox="0 0 52 52" version="1.1" xmlns="http://www.w3.org/2000/svg" xmlns:xlink="http://www.w3.org/1999/xlink">
<title>Fill 209</title>
<desc>Created using Figma</desc>
<g id="Canvas" transform="translate(-1109 -2530)">
<g id="Fill 209">
<use xlink:href="#path0_fill" transform="translate(1109.6 2530.49)" fill="#444444"/>
</g>
</g>
<defs>
<path id="path0_fill" fill-rule="evenodd" d="M 38.3999 38.3601L 33.0959 38.3601L 33.0959 30.0627C 33.0959 28.0843 33.0607 25.5398 30.3391 25.5398C 27.5791 25.5398 27.1583 27.6957 27.1583 29.922L 27.1583 38.3601L 21.8591 38.3601L 21.8591 21.2983L 26.9439 21.2983L 26.9439 23.6318L 27.0175 23.6318C 27.7247 22.2899 29.4559 20.8745 32.0367 20.8745C 37.4079 20.8745 38.3999 24.4074 38.3999 29.0023L 38.3999 38.3601ZM 15.8783 18.9679C 14.1743 18.9679 12.7999 17.5893 12.7999 15.8924C 12.7999 14.1955 14.1743 12.8169 15.8783 12.8169C 17.5743 12.8169 18.9519 14.1955 18.9519 15.8924C 18.9519 17.5893 17.5743 18.9679 15.8783 18.9679ZM 18.5311 38.3598L 13.2207 38.3598L 13.2207 21.2981L 18.5311 21.2981L 18.5311 38.3598ZM 25.6 0C 11.4608 0 0 11.4561 0 25.5894C 0 39.7211 11.4608 51.1788 25.6 51.1788C 39.7391 51.1788 51.1999 39.7211 51.1999 25.5894C 51.1999 11.4561 39.7391 0 25.6 0Z"/>
</defs>
</svg>
