<svg width="53" height="52" viewBox="0 0 53 52" version="1.1" xmlns="http://www.w3.org/2000/svg" xmlns:xlink="http://www.w3.org/1999/xlink">
<title>Fill 210</title>
<desc>Created using Figma</desc>
<g id="Canvas" transform="translate(-1192 -2530)">
<g id="Fill 210">
<use xlink:href="#path0_fill" transform="translate(1192.8 2530.49)" fill="#444444"/>
</g>
</g>
<defs>
<path id="path0_fill" fill-rule="evenodd" d="M 29.2383 35.801C 29.2383 35.801 27.5071 36.0106 25.5999 36.0106C 23.6927 36.0106 21.9391 35.817 21.9391 35.817C 17.4831 35.31 12.7999 33.5892 12.7999 25.9043C 12.7999 23.7149 13.5807 21.9252 14.8639 20.5226C 14.6591 20.0156 13.9695 17.9764 15.0607 15.2144C 15.0607 15.2144 16.7455 14.6754 20.5791 17.2711C 22.1791 16.8265 23.8959 16.6042 25.6015 16.5962C 27.3055 16.6042 29.0223 16.8265 30.6255 17.2711C 34.4559 14.6754 36.1375 15.2144 36.1375 15.2144C 37.2319 17.9764 36.5439 20.0156 36.3375 20.5226C 37.6223 21.9252 38.3999 23.7149 38.3999 25.9043C 38.3999 33.6083 33.7087 35.3052 29.2383 35.801ZM 25.6 0C 11.4608 0 0 11.4561 0 25.5894C 0 39.7211 11.4608 51.1788 25.6 51.1788C 39.7375 51.1788 51.1999 39.7211 51.1999 25.5894C 51.1999 11.4561 39.7375 0 25.6 0Z"/>
</defs>
</svg>
