<svg width="56" height="56" viewBox="0 0 56 56" version="1.1" xmlns="http://www.w3.org/2000/svg" xmlns:xlink="http://www.w3.org/1999/xlink">
<title>linkedin-light</title>
<desc>Created using Figma</desc>
<g id="Canvas" transform="translate(757 -551)">
<g id="linkedin-light">
<g id="LinkedIN">
<use xlink:href="#path0_fill" transform="translate(-755 553)" fill="#F2F2F2"/>
<use xlink:href="#path1_stroke" transform="translate(-755 553)" fill="#E6E6E6"/>
</g>
<g id="LinkedIN">
<use xlink:href="#path2_fill" transform="translate(-751 558)" fill="#444444"/>
</g>
<g id="linkedin-light">
<use xlink:href="#path3_fill" transform="translate(-755 553)" fill="#FFFFFF"/>
</g>
</g>
</g>
<defs>
<path id="path0_fill" fill-rule="evenodd" d="M 0 25.59C 0 11.457 11.4615 0 25.6 0C 39.7385 0 51.2 11.457 51.2 25.59C 51.2 39.723 39.7385 51.18 25.6 51.18C 11.4615 51.18 0 39.723 0 25.59Z"/>
<path id="path1_stroke" d="M 2 25.59C 2 12.5623 12.5653 2 25.6 2L 25.6 -2C 10.3577 -2 -2 10.3517 -2 25.59L 2 25.59ZM 25.6 2C 38.6347 2 49.2 12.5623 49.2 25.59L 53.2 25.59C 53.2 10.3517 40.8423 -2 25.6 -2L 25.6 2ZM 49.2 25.59C 49.2 38.6177 38.6347 49.18 25.6 49.18L 25.6 53.18C 40.8423 53.18 53.2 40.8283 53.2 25.59L 49.2 25.59ZM 25.6 49.18C 12.5653 49.18 2 38.6177 2 25.59L -2 25.59C -2 40.8283 10.3577 53.18 25.6 53.18L 25.6 49.18Z"/>
<path id="path2_fill" fill-rule="evenodd" d="M 0 21.5C 0 9.62588 9.62588 0 21.5 0C 33.3741 0 43 9.62588 43 21.5C 43 33.3741 33.3741 43 21.5 43C 9.62588 43 0 33.3741 0 21.5Z"/>
<path id="path3_fill" fill-rule="evenodd" d="M 25.6 0C 11.4615 0 0 11.457 0 25.59C 0 39.723 11.4615 51.18 25.6 51.18C 39.7385 51.18 51.2 39.723 51.2 25.59C 51.2 11.457 39.7385 0 25.6 0ZM 12.2897 21.1948L 18.0912 21.1948L 18.0912 38.6191L 12.2897 38.6191L 12.2897 21.1948ZM 18.4733 15.8047C 18.4357 14.0963 17.2135 12.795 15.2288 12.795C 13.2441 12.795 11.9467 14.0963 11.9467 15.8047C 11.9467 17.4778 13.2058 18.8165 15.1535 18.8165L 15.1906 18.8165C 17.2135 18.8165 18.4733 17.4778 18.4733 15.8047ZM 32.334 20.7856C 36.1517 20.7856 39.0137 23.2765 39.0137 28.6285L 39.0135 38.6191L 33.2122 38.6191L 33.2122 29.2971C 33.2122 26.9556 32.3727 25.3578 30.2725 25.3578C 28.6697 25.3578 27.715 26.4349 27.2958 27.4753C 27.1423 27.8481 27.1047 28.3676 27.1047 28.8884L 27.1047 38.6196L 21.3025 38.6196C 21.3025 38.6196 21.379 22.8302 21.3025 21.1952L 27.1047 21.1952L 27.1047 23.6632C 27.8747 22.4768 29.2538 20.7856 32.334 20.7856Z"/>
</defs>
</svg>
