<svg width="272" height="272" viewBox="0 0 272 272" fill="none" xmlns="http://www.w3.org/2000/svg">
<path d="M4.99219 76.6992V67.207C8.4375 69.3164 12.1055 70.3711 15.9961 70.3711C18.9258 70.3711 21.2109 69.6797 22.8516 68.2969C24.5156 66.8906 25.3477 64.9922 25.3477 62.6016C25.3477 57.6094 21.8203 55.1133 14.7656 55.1133C12.1641 55.1133 9.16406 55.3125 5.76562 55.7109L7.66406 27.5859H34.3477V36.6562H16.1367L15.4336 46.7461C17.2383 46.6055 18.7969 46.5352 20.1094 46.5352C25.2891 46.5352 29.3438 47.8945 32.2734 50.6133C35.2031 53.332 36.668 56.9883 36.668 61.582C36.668 66.668 34.9219 70.8281 31.4297 74.0625C27.9375 77.2734 23.2031 78.8789 17.2266 78.8789C12.375 78.8789 8.29688 78.1523 4.99219 76.6992ZM74.8828 27.5859V59.3672H80.9297V67.6641H74.8828V78H64.7578V67.6641H42.7852V58.9805C44.7305 56.8008 46.7461 54.4219 48.832 51.8438C50.918 49.2422 52.9336 46.5703 54.8789 43.8281C56.8242 41.0859 58.6289 38.332 60.293 35.5664C61.9805 32.7773 63.4102 30.1172 64.582 27.5859H74.8828ZM52.7344 59.3672H64.7578V41.7539C63.9375 43.2773 63.0469 44.8242 62.0859 46.3945C61.125 47.9414 60.1172 49.4766 59.0625 51C58.0078 52.5 56.9414 53.9648 55.8633 55.3945C54.7852 56.8008 53.7422 58.125 52.7344 59.3672ZM97.9453 53.1445C94.3594 53.1445 91.4648 52.0078 89.2617 49.7344C87.082 47.4609 85.9922 44.4023 85.9922 40.5586C85.9922 36.3633 87.1523 33.0352 89.4727 30.5742C91.8164 28.1133 94.9336 26.8828 98.8242 26.8828C102.551 26.8828 105.457 27.9961 107.543 30.2227C109.652 32.4492 110.707 35.5781 110.707 39.6094C110.707 43.7578 109.547 47.0508 107.227 49.4883C104.906 51.9258 101.812 53.1445 97.9453 53.1445ZM98.6133 33.0703C95.1914 33.0703 93.4805 35.4492 93.4805 40.207C93.4805 44.707 95.1094 46.957 98.3672 46.957C101.695 46.957 103.359 44.6133 103.359 39.9258C103.359 35.3555 101.777 33.0703 98.6133 33.0703ZM134.754 27.5859L101.918 78H93.3398L126.105 27.5859H134.754ZM129.34 78.7031C125.754 78.7031 122.859 77.5664 120.656 75.293C118.477 73.0195 117.387 69.9609 117.387 66.1172C117.387 61.9219 118.547 58.5938 120.867 56.1328C123.211 53.6719 126.328 52.4414 130.219 52.4414C133.969 52.4414 136.887 53.543 138.973 55.7461C141.059 57.9492 142.102 61.0664 142.102 65.0977C142.102 69.2461 140.941 72.5508 138.621 75.0117C136.301 77.4727 133.207 78.7031 129.34 78.7031ZM129.902 58.6289C126.504 58.6289 124.805 61.0078 124.805 65.7656C124.805 70.2656 126.457 72.5156 129.762 72.5156C133.09 72.5156 134.754 70.1719 134.754 65.4844C134.754 63.3047 134.309 61.6172 133.418 60.4219C132.527 59.2266 131.355 58.6289 129.902 58.6289Z" transform="translate(63 84)" fill="#444444"/>
<g filter="url(#filter0_d)">
<path d="M65.4689 255.152C49.2 261.513 26.0282 265.896 0 263.181V238.302C42.7606 239.864 69.3507 228.116 89.1796 207.976C109.008 187.835 122.704 160.463 122.704 131.981C122.704 103.498 109.008 76.2385 89.1796 56.0983C69.3507 35.9581 42.457 24.6434 14.4148 24.6434V0.0749083C31.8374 -0.521544 49.2 2.44885 65.4689 8.80923C81.7379 15.1696 96.5805 24.7899 109.113 37.0974C121.645 49.4049 131.612 64.1479 138.418 80.4487C145.225 96.7494 148.732 114.275 148.732 131.981C148.732 149.687 145.225 167.212 138.418 183.513C131.612 199.814 121.645 214.557 109.113 226.864C96.5805 239.172 81.7379 248.792 65.4689 255.152Z" transform="translate(119.268)" fill="#F2994A"/>
<path d="M129.94 0C95.4781 0 62.4273 13.9051 38.0587 38.6563C13.6901 63.4075 0 96.9773 0 131.981C0 166.984 13.6901 200.554 38.0587 225.305C62.4273 250.056 94.8169 260.243 115.268 263.107V238.228C98.5352 236.071 75.6035 226.46 55.7747 206.32C35.9458 186.18 26.0282 160.463 26.0282 131.981C26.0282 103.498 35.9458 77.7075 55.7747 57.5673C75.6035 37.4271 101.898 24.4561 129.94 24.4561V0Z" transform="translate(4 0.0744629)" fill="#DADADA"/>
</g>
<defs>
<filter id="filter0_d" x="0" y="0" width="272" height="272" filterUnits="userSpaceOnUse" color-interpolation-filters="sRGB">
<feFlood flood-opacity="0" result="BackgroundImageFix"/>
<feColorMatrix in="SourceAlpha" type="matrix" values="0 0 0 0 0 0 0 0 0 0 0 0 0 0 0 0 0 0 255 0"/>
<feOffset dy="4"/>
<feGaussianBlur stdDeviation="2"/>
<feColorMatrix type="matrix" values="0 0 0 0 0 0 0 0 0 0 0 0 0 0 0 0 0 0 0.25 0"/>
<feBlend mode="normal" in2="BackgroundImageFix" result="effect1_dropShadow"/>
<feBlend mode="normal" in="SourceGraphic" in2="effect1_dropShadow" result="shape"/>
</filter>
</defs>
</svg>
