<svg width="100" height="100" viewBox="0 0 100 100" fill="none" xmlns="http://www.w3.org/2000/svg">
<path d="M34.6625 39.0625H20.3125C19.8984 39.0625 19.5 39.2266 19.2078 39.5203L13.4156 45.3125H12.2125C11.5656 43.4984 9.84688 42.1875 7.8125 42.1875C5.22812 42.1875 3.125 44.2906 3.125 46.875C3.125 49.4594 5.22812 51.5625 7.8125 51.5625C9.84688 51.5625 11.5656 50.2516 12.2125 48.4375H14.0625C14.4766 48.4375 14.875 48.2734 15.1672 47.9797L20.9594 42.1875H34.6625C35.3094 44.0016 37.0281 45.3125 39.0625 45.3125C40.25 45.3125 41.3219 44.8547 42.1484 44.125L48.5156 47.6672C48.4734 47.9188 48.4375 48.1734 48.4375 48.4375C48.4375 51.0219 50.5406 53.125 53.125 53.125C55.7094 53.125 57.8125 51.0219 57.8125 48.4375C57.8125 48.1734 57.7766 47.9188 57.7344 47.6672L64.1016 44.125C64.9281 44.8547 66 45.3125 67.1875 45.3125C69.7719 45.3125 71.875 43.2094 71.875 40.625C71.875 38.5906 70.5641 36.8719 68.75 36.225V29.3984C70.5641 28.7516 71.875 27.0328 71.875 24.9984C71.875 22.4141 69.7719 20.3109 67.1875 20.3109C66 20.3109 64.9281 20.7687 64.1016 21.4984L57.7344 17.9562C57.7766 17.7062 57.8125 17.4516 57.8125 17.1875C57.8125 14.6031 55.7094 12.5 53.125 12.5C50.5406 12.5 48.4375 14.6031 48.4375 17.1875C48.4375 17.4516 48.4734 17.7063 48.5156 17.9578L42.1484 21.5C41.3219 20.7703 40.25 20.3125 39.0625 20.3125C37.0281 20.3125 35.3094 21.6234 34.6625 23.4375H20.9594L15.1672 17.6453C14.875 17.3516 14.4766 17.1875 14.0625 17.1875H12.2125C11.5656 15.3734 9.84688 14.0625 7.8125 14.0625C5.22812 14.0625 3.125 16.1656 3.125 18.75C3.125 21.3344 5.22812 23.4375 7.8125 23.4375C9.84688 23.4375 11.5656 22.1266 12.2125 20.3125H13.4156L19.2078 26.1047C19.5 26.3984 19.8984 26.5625 20.3125 26.5625H34.6625C35.1344 27.8859 36.1766 28.9281 37.5 29.4V31.25H12.2125C11.5656 29.4359 9.84688 28.125 7.8125 28.125C5.22812 28.125 3.125 30.2281 3.125 32.8125C3.125 35.3969 5.22812 37.5 7.8125 37.5C9.84688 37.5 11.5656 36.1891 12.2125 34.375H37.5V36.225C36.1766 36.6969 35.1344 37.7391 34.6625 39.0625ZM7.8125 48.4375C6.95156 48.4375 6.25 47.7359 6.25 46.875C6.25 46.0141 6.95156 45.3125 7.8125 45.3125C8.67344 45.3125 9.375 46.0141 9.375 46.875C9.375 47.7359 8.67344 48.4375 7.8125 48.4375ZM7.8125 20.3125C6.95156 20.3125 6.25 19.6109 6.25 18.75C6.25 17.8891 6.95156 17.1875 7.8125 17.1875C8.67344 17.1875 9.375 17.8891 9.375 18.75C9.375 19.6109 8.67344 20.3125 7.8125 20.3125ZM7.8125 34.375C6.95156 34.375 6.25 33.6734 6.25 32.8125C6.25 31.9516 6.95156 31.25 7.8125 31.25C8.67344 31.25 9.375 31.9516 9.375 32.8125C9.375 33.6734 8.67344 34.375 7.8125 34.375ZM39.0625 42.1875C38.2016 42.1875 37.5 41.4859 37.5 40.625C37.5 39.7641 38.2016 39.0625 39.0625 39.0625C39.9234 39.0625 40.625 39.7641 40.625 40.625C40.625 41.4859 39.9234 42.1875 39.0625 42.1875ZM42.1484 28.5L48.5156 32.0422C48.4734 32.2938 48.4375 32.5484 48.4375 32.8125C48.4375 33.0766 48.4734 33.3312 48.5156 33.5828L42.1484 37.125C41.7047 36.7344 41.1922 36.4281 40.625 36.225V29.3984C41.1922 29.1969 41.7062 28.8922 42.1484 28.5ZM64.1016 37.125L57.7344 33.5828C57.7766 33.3312 57.8125 33.0766 57.8125 32.8125C57.8125 32.5484 57.7766 32.2938 57.7344 32.0422L64.1016 28.5C64.5453 28.8906 65.0578 29.1969 65.625 29.4V36.2266C65.0578 36.4281 64.5438 36.7328 64.1016 37.125ZM43.6719 39.8547L50.0391 36.3125C50.4828 36.7031 50.9953 37.0094 51.5625 37.2125V44.0391C50.9953 44.2422 50.4813 44.5469 50.0391 44.9391L43.6719 41.3969C43.7141 41.1437 43.75 40.8891 43.75 40.625C43.75 40.3609 43.7141 40.1063 43.6719 39.8547ZM53.125 31.25C53.9859 31.25 54.6875 31.9516 54.6875 32.8125C54.6875 33.6734 53.9859 34.375 53.125 34.375C52.2641 34.375 51.5625 33.6734 51.5625 32.8125C51.5625 31.9516 52.2641 31.25 53.125 31.25ZM54.6875 37.2125C55.2547 37.0094 55.7687 36.7047 56.2109 36.3125L62.5781 39.8547C62.5359 40.1063 62.5 40.3609 62.5 40.625C62.5 40.8891 62.5359 41.1437 62.5781 41.3953L56.2109 44.9375C55.7672 44.5469 55.2547 44.2406 54.6875 44.0375V37.2125ZM62.5781 25.7703L56.2109 29.3125C55.7672 28.9219 55.2547 28.6156 54.6875 28.4125V21.5859C55.2547 21.3828 55.7687 21.0781 56.2109 20.6859L62.5781 24.2281C62.5359 24.4812 62.5 24.7359 62.5 25C62.5 25.2641 62.5359 25.5188 62.5781 25.7703ZM51.5625 28.4125C50.9953 28.6156 50.4813 28.9203 50.0391 29.3125L43.6719 25.7703C43.7141 25.5188 43.75 25.2641 43.75 25C43.75 24.7359 43.7141 24.4812 43.6719 24.2297L50.0391 20.6875C50.4828 21.0781 50.9953 21.3844 51.5625 21.5875V28.4125ZM53.125 50C52.2641 50 51.5625 49.2984 51.5625 48.4375C51.5625 47.5766 52.2641 46.875 53.125 46.875C53.9859 46.875 54.6875 47.5766 54.6875 48.4375C54.6875 49.2984 53.9859 50 53.125 50ZM67.1875 42.1875C66.3266 42.1875 65.625 41.4859 65.625 40.625C65.625 39.7641 66.3266 39.0625 67.1875 39.0625C68.0484 39.0625 68.75 39.7641 68.75 40.625C68.75 41.4859 68.0484 42.1875 67.1875 42.1875ZM67.1875 23.4375C68.0484 23.4375 68.75 24.1391 68.75 25C68.75 25.8609 68.0484 26.5625 67.1875 26.5625C66.3266 26.5625 65.625 25.8609 65.625 25C65.625 24.1391 66.3266 23.4375 67.1875 23.4375ZM53.125 15.625C53.9859 15.625 54.6875 16.3266 54.6875 17.1875C54.6875 18.0484 53.9859 18.75 53.125 18.75C52.2641 18.75 51.5625 18.0484 51.5625 17.1875C51.5625 16.3266 52.2641 15.625 53.125 15.625ZM39.0625 23.4375C39.9234 23.4375 40.625 24.1391 40.625 25C40.625 25.8609 39.9234 26.5625 39.0625 26.5625C38.2016 26.5625 37.5 25.8609 37.5 25C37.5 24.1391 38.2016 23.4375 39.0625 23.4375Z" fill="black"/>
<path d="M35.9375 96.8749H60.9375C61.8 96.8749 62.5 96.1749 62.5 95.3124V84.3749H82.8125C83.675 84.3749 84.375 83.6749 84.375 82.8124V64.0624H95.3125C95.8093 64.0624 96.2765 63.8265 96.5718 63.4249C96.8672 63.0233 96.9531 62.5077 96.8047 62.0327L89.014 37.1046C88.7015 27.6233 84.6984 18.8733 77.7109 12.4249C70.6422 5.90303 61.4312 2.62803 51.7953 3.18741C40.7047 3.83585 30.4297 9.92178 24.3093 19.4687L26.9406 21.1546C32.5234 12.4468 41.8828 6.89678 51.9797 6.30616C60.7625 5.78897 69.1547 8.78116 75.5906 14.7218C82.0484 20.6796 85.7094 28.7968 85.9 37.5765C85.9062 37.8468 85.9859 38.1015 86.1203 38.3218L93.1875 60.9374H82.8125C81.95 60.9374 81.25 61.6374 81.25 62.4999V68.7499H76.5625C73.9781 68.7499 71.875 66.6468 71.875 64.0624H68.75C68.75 68.3702 72.2547 71.8749 76.5625 71.8749H81.25V81.2499H60.9375C60.075 81.2499 59.375 81.9499 59.375 82.8124V93.7499H37.5V92.239C37.5 79.5968 33.7 66.6702 26.5093 54.8562C24.9187 52.2437 23.7172 49.4233 22.9359 46.4749L19.914 47.2749C20.7718 50.514 22.0922 53.6108 23.839 56.4812C30.7312 67.8062 34.375 80.1702 34.375 92.239V95.3124C34.375 96.1749 35.075 96.8749 35.9375 96.8749Z" fill="black"/>
</svg>
