<svg width="586" height="68" viewBox="0 0 586 68" fill="none" xmlns="http://www.w3.org/2000/svg">
<rect width="184" height="68" rx="4" fill="#00567A"/>
<path d="M53.3372 29.859V31H47.6462V20.969H48.9972V29.859H53.3372ZM57.0268 23.797C57.5448 23.797 58.0114 23.8833 58.4268 24.056C58.8421 24.2287 59.1968 24.4737 59.4908 24.791C59.7848 25.1083 60.0088 25.4933 60.1628 25.946C60.3214 26.394 60.4008 26.8957 60.4008 27.451C60.4008 28.011 60.3214 28.515 60.1628 28.963C60.0088 29.411 59.7848 29.7937 59.4908 30.111C59.1968 30.4283 58.8421 30.6733 58.4268 30.846C58.0114 31.014 57.5448 31.098 57.0268 31.098C56.5041 31.098 56.0328 31.014 55.6128 30.846C55.1974 30.6733 54.8428 30.4283 54.5488 30.111C54.2548 29.7937 54.0284 29.411 53.8698 28.963C53.7158 28.515 53.6388 28.011 53.6388 27.451C53.6388 26.8957 53.7158 26.394 53.8698 25.946C54.0284 25.4933 54.2548 25.1083 54.5488 24.791C54.8428 24.4737 55.1974 24.2287 55.6128 24.056C56.0328 23.8833 56.5041 23.797 57.0268 23.797ZM57.0268 30.125C57.7268 30.125 58.2494 29.8917 58.5948 29.425C58.9401 28.9537 59.1128 28.298 59.1128 27.458C59.1128 26.6133 58.9401 25.9553 58.5948 25.484C58.2494 25.0127 57.7268 24.777 57.0268 24.777C56.6721 24.777 56.3618 24.8377 56.0958 24.959C55.8344 25.0803 55.6151 25.2553 55.4378 25.484C55.2651 25.7127 55.1344 25.995 55.0458 26.331C54.9618 26.6623 54.9198 27.038 54.9198 27.458C54.9198 28.298 55.0924 28.9537 55.4378 29.425C55.7878 29.8917 56.3174 30.125 57.0268 30.125ZM64.9701 23.797C65.4881 23.797 65.9548 23.8833 66.3701 24.056C66.7855 24.2287 67.1401 24.4737 67.4341 24.791C67.7281 25.1083 67.9521 25.4933 68.1061 25.946C68.2648 26.394 68.3441 26.8957 68.3441 27.451C68.3441 28.011 68.2648 28.515 68.1061 28.963C67.9521 29.411 67.7281 29.7937 67.4341 30.111C67.1401 30.4283 66.7855 30.6733 66.3701 30.846C65.9548 31.014 65.4881 31.098 64.9701 31.098C64.4475 31.098 63.9761 31.014 63.5561 30.846C63.1408 30.6733 62.7861 30.4283 62.4921 30.111C62.1981 29.7937 61.9718 29.411 61.8131 28.963C61.6591 28.515 61.5821 28.011 61.5821 27.451C61.5821 26.8957 61.6591 26.394 61.8131 25.946C61.9718 25.4933 62.1981 25.1083 62.4921 24.791C62.7861 24.4737 63.1408 24.2287 63.5561 24.056C63.9761 23.8833 64.4475 23.797 64.9701 23.797ZM64.9701 30.125C65.6701 30.125 66.1928 29.8917 66.5381 29.425C66.8835 28.9537 67.0561 28.298 67.0561 27.458C67.0561 26.6133 66.8835 25.9553 66.5381 25.484C66.1928 25.0127 65.6701 24.777 64.9701 24.777C64.6155 24.777 64.3051 24.8377 64.0391 24.959C63.7778 25.0803 63.5585 25.2553 63.3811 25.484C63.2085 25.7127 63.0778 25.995 62.9891 26.331C62.9051 26.6623 62.8631 27.038 62.8631 27.458C62.8631 28.298 63.0358 28.9537 63.3811 29.425C63.7311 29.8917 64.2608 30.125 64.9701 30.125ZM71.1775 20.689V26.758H71.4995C71.5928 26.758 71.6698 26.7463 71.7305 26.723C71.7958 26.695 71.8635 26.6413 71.9335 26.562L74.1735 24.161C74.2388 24.0817 74.3065 24.021 74.3765 23.979C74.4512 23.9323 74.5492 23.909 74.6705 23.909H75.7975L73.1865 26.688C73.0605 26.8467 72.9252 26.9703 72.7805 27.059C72.8645 27.115 72.9392 27.1803 73.0045 27.255C73.0745 27.325 73.1398 27.4067 73.2005 27.5L75.9725 31H74.8595C74.7522 31 74.6588 30.9837 74.5795 30.951C74.5048 30.9137 74.4395 30.8483 74.3835 30.755L72.0525 27.85C71.9825 27.752 71.9125 27.689 71.8425 27.661C71.7772 27.6283 71.6745 27.612 71.5345 27.612H71.1775V31H69.9245V20.689H71.1775ZM81.0779 31V24.973L80.2939 24.882C80.1959 24.8587 80.1142 24.8237 80.0489 24.777C79.9882 24.7257 79.9579 24.6533 79.9579 24.56V24.049H81.0779V23.363C81.0779 22.957 81.1339 22.5977 81.2459 22.285C81.3626 21.9677 81.5259 21.7017 81.7359 21.487C81.9506 21.2677 82.2072 21.102 82.5059 20.99C82.8046 20.878 83.1406 20.822 83.5139 20.822C83.8312 20.822 84.1229 20.8687 84.3889 20.962L84.3609 21.585C84.3516 21.697 84.2886 21.7577 84.1719 21.767C84.0599 21.7763 83.9082 21.781 83.7169 21.781C83.5022 21.781 83.3062 21.809 83.1289 21.865C82.9562 21.921 82.8069 22.012 82.6809 22.138C82.5549 22.264 82.4569 22.4297 82.3869 22.635C82.3216 22.8403 82.2889 23.0947 82.2889 23.398V24.049H84.3329V24.952H82.3309V31H81.0779ZM88.2807 23.797C88.7987 23.797 89.2654 23.8833 89.6807 24.056C90.096 24.2287 90.4507 24.4737 90.7447 24.791C91.0387 25.1083 91.2627 25.4933 91.4167 25.946C91.5754 26.394 91.6547 26.8957 91.6547 27.451C91.6547 28.011 91.5754 28.515 91.4167 28.963C91.2627 29.411 91.0387 29.7937 90.7447 30.111C90.4507 30.4283 90.096 30.6733 89.6807 30.846C89.2654 31.014 88.7987 31.098 88.2807 31.098C87.758 31.098 87.2867 31.014 86.8667 30.846C86.4514 30.6733 86.0967 30.4283 85.8027 30.111C85.5087 29.7937 85.2824 29.411 85.1237 28.963C84.9697 28.515 84.8927 28.011 84.8927 27.451C84.8927 26.8957 84.9697 26.394 85.1237 25.946C85.2824 25.4933 85.5087 25.1083 85.8027 24.791C86.0967 24.4737 86.4514 24.2287 86.8667 24.056C87.2867 23.8833 87.758 23.797 88.2807 23.797ZM88.2807 30.125C88.9807 30.125 89.5034 29.8917 89.8487 29.425C90.194 28.9537 90.3667 28.298 90.3667 27.458C90.3667 26.6133 90.194 25.9553 89.8487 25.484C89.5034 25.0127 88.9807 24.777 88.2807 24.777C87.926 24.777 87.6157 24.8377 87.3497 24.959C87.0884 25.0803 86.869 25.2553 86.6917 25.484C86.519 25.7127 86.3884 25.995 86.2997 26.331C86.2157 26.6623 86.1737 27.038 86.1737 27.458C86.1737 28.298 86.3464 28.9537 86.6917 29.425C87.0417 29.8917 87.5714 30.125 88.2807 30.125ZM94.418 25.33C94.642 24.8447 94.9174 24.4667 95.244 24.196C95.5707 23.9207 95.9697 23.783 96.441 23.783C96.5904 23.783 96.7327 23.7993 96.868 23.832C97.008 23.8647 97.1317 23.916 97.239 23.986L97.148 24.917C97.12 25.0337 97.05 25.092 96.938 25.092C96.8727 25.092 96.777 25.078 96.651 25.05C96.525 25.022 96.3827 25.008 96.224 25.008C96 25.008 95.7994 25.0407 95.622 25.106C95.4494 25.1713 95.293 25.2693 95.153 25.4C95.0177 25.526 94.894 25.6847 94.782 25.876C94.6747 26.0627 94.5767 26.2773 94.488 26.52V31H93.235V23.909H93.949C94.0844 23.909 94.1777 23.9347 94.229 23.986C94.2804 24.0373 94.3154 24.126 94.334 24.252L94.418 25.33ZM102.792 24.938C102.946 24.7653 103.109 24.609 103.282 24.469C103.455 24.329 103.637 24.21 103.828 24.112C104.024 24.0093 104.229 23.9323 104.444 23.881C104.663 23.825 104.899 23.797 105.151 23.797C105.538 23.797 105.879 23.8623 106.173 23.993C106.472 24.119 106.719 24.301 106.915 24.539C107.116 24.7723 107.267 25.0547 107.37 25.386C107.473 25.7173 107.524 26.0837 107.524 26.485V31H106.271V26.485C106.271 25.9483 106.147 25.533 105.9 25.239C105.657 24.9403 105.286 24.791 104.787 24.791C104.418 24.791 104.073 24.8797 103.751 25.057C103.434 25.2343 103.14 25.4747 102.869 25.778V31H101.616V23.909H102.365C102.542 23.909 102.652 23.9953 102.694 24.168L102.792 24.938ZM113.266 27.808C112.692 27.8267 112.202 27.8733 111.796 27.948C111.394 28.018 111.065 28.1113 110.809 28.228C110.557 28.3447 110.372 28.4823 110.256 28.641C110.144 28.7997 110.088 28.977 110.088 29.173C110.088 29.3597 110.118 29.5207 110.179 29.656C110.239 29.7913 110.321 29.9033 110.424 29.992C110.531 30.076 110.655 30.139 110.795 30.181C110.939 30.2183 111.093 30.237 111.257 30.237C111.476 30.237 111.677 30.216 111.859 30.174C112.041 30.1273 112.211 30.062 112.37 29.978C112.533 29.894 112.687 29.7937 112.832 29.677C112.981 29.5603 113.126 29.4273 113.266 29.278V27.808ZM109.241 24.91C109.633 24.532 110.055 24.2497 110.508 24.063C110.96 23.8763 111.462 23.783 112.013 23.783C112.409 23.783 112.762 23.8483 113.07 23.979C113.378 24.1097 113.637 24.2917 113.847 24.525C114.057 24.7583 114.215 25.0407 114.323 25.372C114.43 25.7033 114.484 26.0673 114.484 26.464V31H113.931C113.809 31 113.716 30.9813 113.651 30.944C113.585 30.902 113.534 30.8227 113.497 30.706L113.357 30.034C113.17 30.2067 112.988 30.3607 112.811 30.496C112.633 30.6267 112.447 30.7387 112.251 30.832C112.055 30.9207 111.845 30.9883 111.621 31.035C111.401 31.0863 111.156 31.112 110.886 31.112C110.61 31.112 110.351 31.0747 110.109 31C109.866 30.9207 109.654 30.804 109.472 30.65C109.294 30.496 109.152 30.3023 109.045 30.069C108.942 29.831 108.891 29.551 108.891 29.229C108.891 28.949 108.968 28.6807 109.122 28.424C109.276 28.1627 109.525 27.9317 109.871 27.731C110.216 27.5303 110.666 27.367 111.222 27.241C111.777 27.1103 112.458 27.0357 113.266 27.017V26.464C113.266 25.9133 113.147 25.498 112.909 25.218C112.671 24.9333 112.323 24.791 111.866 24.791C111.558 24.791 111.299 24.8307 111.089 24.91C110.883 24.9847 110.704 25.071 110.55 25.169C110.4 25.2623 110.27 25.3487 110.158 25.428C110.05 25.5027 109.943 25.54 109.836 25.54C109.752 25.54 109.679 25.519 109.619 25.477C109.558 25.4303 109.507 25.3743 109.465 25.309L109.241 24.91ZM116.382 31V23.909H117.131C117.308 23.909 117.418 23.9953 117.46 24.168L117.551 24.896C117.812 24.574 118.106 24.3103 118.433 24.105C118.759 23.8997 119.137 23.797 119.567 23.797C120.043 23.797 120.428 23.93 120.722 24.196C121.02 24.462 121.235 24.8213 121.366 25.274C121.468 25.0173 121.599 24.7957 121.758 24.609C121.921 24.4223 122.103 24.2683 122.304 24.147C122.504 24.0257 122.717 23.937 122.941 23.881C123.169 23.825 123.4 23.797 123.634 23.797C124.007 23.797 124.338 23.8577 124.628 23.979C124.922 24.0957 125.169 24.2683 125.37 24.497C125.575 24.7257 125.731 25.008 125.839 25.344C125.946 25.6753 126 26.0557 126 26.485V31H124.747V26.485C124.747 25.9297 124.625 25.5097 124.383 25.225C124.14 24.9357 123.79 24.791 123.333 24.791C123.127 24.791 122.931 24.8283 122.745 24.903C122.563 24.973 122.402 25.078 122.262 25.218C122.122 25.358 122.01 25.5353 121.926 25.75C121.846 25.96 121.807 26.205 121.807 26.485V31H120.554V26.485C120.554 25.9157 120.439 25.491 120.211 25.211C119.982 24.931 119.648 24.791 119.21 24.791C118.902 24.791 118.617 24.875 118.356 25.043C118.094 25.2063 117.854 25.4303 117.635 25.715V31H116.382ZM132.639 26.681C132.639 26.3917 132.597 26.128 132.513 25.89C132.434 25.6473 132.315 25.4397 132.156 25.267C132.002 25.0897 131.813 24.9543 131.589 24.861C131.365 24.763 131.111 24.714 130.826 24.714C130.229 24.714 129.755 24.889 129.405 25.239C129.06 25.5843 128.845 26.065 128.761 26.681H132.639ZM133.647 30.006C133.493 30.1927 133.309 30.356 133.094 30.496C132.88 30.6313 132.649 30.7433 132.401 30.832C132.159 30.9207 131.907 30.986 131.645 31.028C131.384 31.0747 131.125 31.098 130.868 31.098C130.378 31.098 129.926 31.0163 129.51 30.853C129.1 30.685 128.743 30.4423 128.439 30.125C128.141 29.803 127.907 29.4063 127.739 28.935C127.571 28.4637 127.487 27.9223 127.487 27.311C127.487 26.8163 127.562 26.3543 127.711 25.925C127.865 25.4957 128.085 25.1247 128.369 24.812C128.654 24.4947 129.002 24.2473 129.412 24.07C129.823 23.888 130.285 23.797 130.798 23.797C131.223 23.797 131.615 23.8693 131.974 24.014C132.338 24.154 132.651 24.3593 132.912 24.63C133.178 24.896 133.386 25.2273 133.535 25.624C133.685 26.016 133.759 26.464 133.759 26.968C133.759 27.164 133.738 27.2947 133.696 27.36C133.654 27.4253 133.575 27.458 133.458 27.458H128.719C128.733 27.906 128.794 28.2957 128.901 28.627C129.013 28.9583 129.167 29.236 129.363 29.46C129.559 29.6793 129.793 29.845 130.063 29.957C130.334 30.0643 130.637 30.118 130.973 30.118C131.286 30.118 131.554 30.083 131.778 30.013C132.007 29.9383 132.203 29.859 132.366 29.775C132.53 29.691 132.665 29.614 132.772 29.544C132.884 29.4693 132.98 29.432 133.059 29.432C133.162 29.432 133.241 29.4717 133.297 29.551L133.647 30.006ZM141.861 23.797C142.379 23.797 142.845 23.8833 143.261 24.056C143.676 24.2287 144.031 24.4737 144.325 24.791C144.619 25.1083 144.843 25.4933 144.997 25.946C145.155 26.394 145.235 26.8957 145.235 27.451C145.235 28.011 145.155 28.515 144.997 28.963C144.843 29.411 144.619 29.7937 144.325 30.111C144.031 30.4283 143.676 30.6733 143.261 30.846C142.845 31.014 142.379 31.098 141.861 31.098C141.338 31.098 140.867 31.014 140.447 30.846C140.031 30.6733 139.677 30.4283 139.383 30.111C139.089 29.7937 138.862 29.411 138.704 28.963C138.55 28.515 138.473 28.011 138.473 27.451C138.473 26.8957 138.55 26.394 138.704 25.946C138.862 25.4933 139.089 25.1083 139.383 24.791C139.677 24.4737 140.031 24.2287 140.447 24.056C140.867 23.8833 141.338 23.797 141.861 23.797ZM141.861 30.125C142.561 30.125 143.083 29.8917 143.429 29.425C143.774 28.9537 143.947 28.298 143.947 27.458C143.947 26.6133 143.774 25.9553 143.429 25.484C143.083 25.0127 142.561 24.777 141.861 24.777C141.506 24.777 141.196 24.8377 140.93 24.959C140.668 25.0803 140.449 25.2553 140.272 25.484C140.099 25.7127 139.968 25.995 139.88 26.331C139.796 26.6623 139.754 27.038 139.754 27.458C139.754 28.298 139.926 28.9537 140.272 29.425C140.622 29.8917 141.151 30.125 141.861 30.125ZM147.991 24.938C148.145 24.7653 148.308 24.609 148.481 24.469C148.654 24.329 148.836 24.21 149.027 24.112C149.223 24.0093 149.428 23.9323 149.643 23.881C149.862 23.825 150.098 23.797 150.35 23.797C150.737 23.797 151.078 23.8623 151.372 23.993C151.671 24.119 151.918 24.301 152.114 24.539C152.315 24.7723 152.466 25.0547 152.569 25.386C152.672 25.7173 152.723 26.0837 152.723 26.485V31H151.47V26.485C151.47 25.9483 151.346 25.533 151.099 25.239C150.856 24.9403 150.485 24.791 149.986 24.791C149.617 24.791 149.272 24.8797 148.95 25.057C148.633 25.2343 148.339 25.4747 148.068 25.778V31H146.815V23.909H147.564C147.741 23.909 147.851 23.9953 147.893 24.168L147.991 24.938ZM77.3572 46.292C77.5859 46.6 77.8355 46.817 78.1062 46.943C78.3769 47.069 78.6802 47.132 79.0162 47.132C79.6789 47.132 80.1875 46.8963 80.5422 46.425C80.8969 45.9537 81.0742 45.2817 81.0742 44.409C81.0742 43.947 81.0322 43.5503 80.9482 43.219C80.8689 42.8877 80.7522 42.617 80.5982 42.407C80.4442 42.1923 80.2552 42.036 80.0312 41.938C79.8072 41.84 79.5529 41.791 79.2682 41.791C78.8622 41.791 78.5052 41.8843 78.1972 42.071C77.8939 42.2577 77.6139 42.5213 77.3572 42.862V46.292ZM77.2942 42.008C77.5929 41.6393 77.9382 41.343 78.3302 41.119C78.7222 40.895 79.1702 40.783 79.6742 40.783C80.0849 40.783 80.4559 40.8623 80.7872 41.021C81.1185 41.175 81.4009 41.406 81.6342 41.714C81.8675 42.0173 82.0472 42.3953 82.1732 42.848C82.2992 43.3007 82.3622 43.821 82.3622 44.409C82.3622 44.9317 82.2922 45.4193 82.1522 45.872C82.0122 46.32 81.8092 46.7097 81.5432 47.041C81.2819 47.3677 80.9599 47.6267 80.5772 47.818C80.1992 48.0047 79.7722 48.098 79.2962 48.098C78.8622 48.098 78.4889 48.0257 78.1762 47.881C77.8682 47.7317 77.5952 47.5263 77.3572 47.265V50.401H76.1042V40.909H76.8532C77.0305 40.909 77.1402 40.9953 77.1822 41.168L77.2942 42.008ZM85.1348 42.33C85.3588 41.8447 85.6342 41.4667 85.9608 41.196C86.2875 40.9207 86.6865 40.783 87.1578 40.783C87.3072 40.783 87.4495 40.7993 87.5848 40.832C87.7248 40.8647 87.8485 40.916 87.9558 40.986L87.8648 41.917C87.8368 42.0337 87.7668 42.092 87.6548 42.092C87.5895 42.092 87.4938 42.078 87.3678 42.05C87.2418 42.022 87.0995 42.008 86.9408 42.008C86.7168 42.008 86.5162 42.0407 86.3388 42.106C86.1662 42.1713 86.0098 42.2693 85.8698 42.4C85.7345 42.526 85.6108 42.6847 85.4988 42.876C85.3915 43.0627 85.2935 43.2773 85.2048 43.52V48H83.9518V40.909H84.6658C84.8012 40.909 84.8945 40.9347 84.9458 40.986C84.9972 41.0373 85.0322 41.126 85.0508 41.252L85.1348 42.33ZM90.3675 40.909V48H89.1215V40.909H90.3675ZM90.6335 38.683C90.6335 38.8043 90.6078 38.9187 90.5565 39.026C90.5098 39.1287 90.4445 39.222 90.3605 39.306C90.2811 39.3853 90.1855 39.4483 90.0735 39.495C89.9661 39.5417 89.8518 39.565 89.7305 39.565C89.6091 39.565 89.4948 39.5417 89.3875 39.495C89.2848 39.4483 89.1938 39.3853 89.1145 39.306C89.0351 39.222 88.9721 39.1287 88.9255 39.026C88.8788 38.9187 88.8555 38.8043 88.8555 38.683C88.8555 38.5617 88.8788 38.4473 88.9255 38.34C88.9721 38.228 89.0351 38.1323 89.1145 38.053C89.1938 37.969 89.2848 37.9037 89.3875 37.857C89.4948 37.8103 89.6091 37.787 89.7305 37.787C89.8518 37.787 89.9661 37.8103 90.0735 37.857C90.1855 37.9037 90.2811 37.969 90.3605 38.053C90.4445 38.1323 90.5098 38.228 90.5565 38.34C90.6078 38.4473 90.6335 38.5617 90.6335 38.683ZM93.5907 41.938C93.7447 41.7653 93.9081 41.609 94.0807 41.469C94.2534 41.329 94.4354 41.21 94.6267 41.112C94.8227 41.0093 95.0281 40.9323 95.2427 40.881C95.4621 40.825 95.6977 40.797 95.9497 40.797C96.3371 40.797 96.6777 40.8623 96.9717 40.993C97.2704 41.119 97.5177 41.301 97.7137 41.539C97.9144 41.7723 98.0661 42.0547 98.1687 42.386C98.2714 42.7173 98.3227 43.0837 98.3227 43.485V48H97.0697V43.485C97.0697 42.9483 96.9461 42.533 96.6987 42.239C96.4561 41.9403 96.0851 41.791 95.5857 41.791C95.2171 41.791 94.8717 41.8797 94.5497 42.057C94.2324 42.2343 93.9384 42.4747 93.6677 42.778V48H92.4147V40.909H93.1637C93.3411 40.909 93.4507 40.9953 93.4927 41.168L93.5907 41.938ZM102.303 48.112C101.743 48.112 101.311 47.9557 101.008 47.643C100.709 47.3303 100.56 46.88 100.56 46.292V41.952H99.7057C99.631 41.952 99.568 41.931 99.5167 41.889C99.4653 41.8423 99.4397 41.7723 99.4397 41.679V41.182L100.602 41.035L100.889 38.844C100.903 38.774 100.933 38.718 100.98 38.676C101.031 38.6293 101.096 38.606 101.176 38.606H101.806V41.049H103.857V41.952H101.806V46.208C101.806 46.5067 101.878 46.7283 102.023 46.873C102.167 47.0177 102.354 47.09 102.583 47.09C102.713 47.09 102.825 47.0737 102.919 47.041C103.017 47.0037 103.101 46.964 103.171 46.922C103.241 46.88 103.299 46.8427 103.346 46.81C103.397 46.7727 103.441 46.754 103.479 46.754C103.544 46.754 103.602 46.7937 103.654 46.873L104.018 47.468C103.803 47.6687 103.544 47.8273 103.241 47.944C102.937 48.056 102.625 48.112 102.303 48.112ZM108.091 40.797C108.609 40.797 109.076 40.8833 109.491 41.056C109.907 41.2287 110.261 41.4737 110.555 41.791C110.849 42.1083 111.073 42.4933 111.227 42.946C111.386 43.394 111.465 43.8957 111.465 44.451C111.465 45.011 111.386 45.515 111.227 45.963C111.073 46.411 110.849 46.7937 110.555 47.111C110.261 47.4283 109.907 47.6733 109.491 47.846C109.076 48.014 108.609 48.098 108.091 48.098C107.569 48.098 107.097 48.014 106.677 47.846C106.262 47.6733 105.907 47.4283 105.613 47.111C105.319 46.7937 105.093 46.411 104.934 45.963C104.78 45.515 104.703 45.011 104.703 44.451C104.703 43.8957 104.78 43.394 104.934 42.946C105.093 42.4933 105.319 42.1083 105.613 41.791C105.907 41.4737 106.262 41.2287 106.677 41.056C107.097 40.8833 107.569 40.797 108.091 40.797ZM108.091 47.125C108.791 47.125 109.314 46.8917 109.659 46.425C110.005 45.9537 110.177 45.298 110.177 44.458C110.177 43.6133 110.005 42.9553 109.659 42.484C109.314 42.0127 108.791 41.777 108.091 41.777C107.737 41.777 107.426 41.8377 107.16 41.959C106.899 42.0803 106.68 42.2553 106.502 42.484C106.33 42.7127 106.199 42.995 106.11 43.331C106.026 43.6623 105.984 44.038 105.984 44.458C105.984 45.298 106.157 45.9537 106.502 46.425C106.852 46.8917 107.382 47.125 108.091 47.125ZM118.877 40.909V48H118.135C117.957 48 117.845 47.9137 117.799 47.741L117.701 46.978C117.393 47.3187 117.047 47.594 116.665 47.804C116.282 48.0093 115.843 48.112 115.349 48.112C114.961 48.112 114.618 48.049 114.32 47.923C114.026 47.7923 113.778 47.6103 113.578 47.377C113.377 47.1437 113.225 46.8613 113.123 46.53C113.025 46.1987 112.976 45.8323 112.976 45.431V40.909H114.222V45.431C114.222 45.9677 114.343 46.383 114.586 46.677C114.833 46.971 115.209 47.118 115.713 47.118C116.081 47.118 116.424 47.0317 116.742 46.859C117.064 46.6817 117.36 46.439 117.631 46.131V40.909H118.877ZM123.029 48.112C122.469 48.112 122.038 47.9557 121.734 47.643C121.436 47.3303 121.286 46.88 121.286 46.292V41.952H120.432C120.358 41.952 120.295 41.931 120.243 41.889C120.192 41.8423 120.166 41.7723 120.166 41.679V41.182L121.328 41.035L121.615 38.844C121.629 38.774 121.66 38.718 121.706 38.676C121.758 38.6293 121.823 38.606 121.902 38.606H122.532V41.049H124.583V41.952H122.532V46.208C122.532 46.5067 122.605 46.7283 122.749 46.873C122.894 47.0177 123.081 47.09 123.309 47.09C123.44 47.09 123.552 47.0737 123.645 47.041C123.743 47.0037 123.827 46.964 123.897 46.922C123.967 46.88 124.026 46.8427 124.072 46.81C124.124 46.7727 124.168 46.754 124.205 46.754C124.271 46.754 124.329 46.7937 124.38 46.873L124.744 47.468C124.53 47.6687 124.271 47.8273 123.967 47.944C123.664 48.056 123.351 48.112 123.029 48.112Z" fill="white"/>
<path d="M213.347 32.6759H197.333L197.333 35.3443H213.347L213.347 39.3468L218.667 34.0101L213.347 28.6733L213.347 32.6759Z" fill="black"/>
<path d="M457.347 32.6759H441.333L441.333 35.3443H457.347L457.347 39.3468L462.667 34.0101L457.347 28.6733L457.347 32.6759Z" fill="black"/>
<rect x="232" width="196" height="68" rx="4" fill="#00567A"/>
<path d="M284.868 28.928C284.943 28.928 285.008 28.9583 285.064 29.019L285.603 29.6C285.192 30.076 284.693 30.447 284.105 30.713C283.522 30.979 282.815 31.112 281.984 31.112C281.265 31.112 280.612 30.9883 280.024 30.741C279.436 30.489 278.934 30.139 278.519 29.691C278.104 29.2383 277.782 28.697 277.553 28.067C277.324 27.437 277.21 26.744 277.21 25.988C277.21 25.232 277.329 24.539 277.567 23.909C277.805 23.279 278.139 22.7377 278.568 22.285C279.002 21.8323 279.52 21.4823 280.122 21.235C280.724 20.983 281.389 20.857 282.117 20.857C282.831 20.857 283.461 20.9713 284.007 21.2C284.553 21.4287 285.034 21.739 285.449 22.131L285.001 22.754C284.973 22.8007 284.936 22.8403 284.889 22.873C284.847 22.901 284.789 22.915 284.714 22.915C284.63 22.915 284.527 22.8707 284.406 22.782C284.285 22.6887 284.126 22.586 283.93 22.474C283.734 22.362 283.489 22.2617 283.195 22.173C282.901 22.0797 282.539 22.033 282.11 22.033C281.592 22.033 281.118 22.124 280.689 22.306C280.26 22.4833 279.889 22.7423 279.576 23.083C279.268 23.4237 279.028 23.839 278.855 24.329C278.682 24.819 278.596 25.372 278.596 25.988C278.596 26.6133 278.685 27.171 278.862 27.661C279.044 28.151 279.289 28.5663 279.597 28.907C279.91 29.243 280.276 29.4997 280.696 29.677C281.121 29.8543 281.578 29.943 282.068 29.943C282.367 29.943 282.635 29.9267 282.873 29.894C283.116 29.8567 283.337 29.8007 283.538 29.726C283.743 29.6513 283.932 29.558 284.105 29.446C284.282 29.3293 284.457 29.1917 284.63 29.033C284.709 28.963 284.789 28.928 284.868 28.928ZM288.136 24.854C288.44 24.532 288.776 24.2753 289.144 24.084C289.513 23.8927 289.938 23.797 290.418 23.797C290.806 23.797 291.146 23.8623 291.44 23.993C291.739 24.119 291.986 24.301 292.182 24.539C292.383 24.7723 292.535 25.0547 292.637 25.386C292.74 25.7173 292.791 26.0837 292.791 26.485V31H291.538V26.485C291.538 25.9483 291.415 25.533 291.167 25.239C290.925 24.9403 290.554 24.791 290.054 24.791C289.686 24.791 289.34 24.8797 289.018 25.057C288.701 25.2343 288.407 25.4747 288.136 25.778V31H286.883V20.689H288.136V24.854ZM299.436 26.681C299.436 26.3917 299.394 26.128 299.31 25.89C299.231 25.6473 299.112 25.4397 298.953 25.267C298.799 25.0897 298.61 24.9543 298.386 24.861C298.162 24.763 297.908 24.714 297.623 24.714C297.026 24.714 296.552 24.889 296.202 25.239C295.857 25.5843 295.642 26.065 295.558 26.681H299.436ZM300.444 30.006C300.29 30.1927 300.106 30.356 299.891 30.496C299.676 30.6313 299.445 30.7433 299.198 30.832C298.955 30.9207 298.703 30.986 298.442 31.028C298.181 31.0747 297.922 31.098 297.665 31.098C297.175 31.098 296.722 31.0163 296.307 30.853C295.896 30.685 295.539 30.4423 295.236 30.125C294.937 29.803 294.704 29.4063 294.536 28.935C294.368 28.4637 294.284 27.9223 294.284 27.311C294.284 26.8163 294.359 26.3543 294.508 25.925C294.662 25.4957 294.881 25.1247 295.166 24.812C295.451 24.4947 295.798 24.2473 296.209 24.07C296.62 23.888 297.082 23.797 297.595 23.797C298.02 23.797 298.412 23.8693 298.771 24.014C299.135 24.154 299.448 24.3593 299.709 24.63C299.975 24.896 300.183 25.2273 300.332 25.624C300.481 26.016 300.556 26.464 300.556 26.968C300.556 27.164 300.535 27.2947 300.493 27.36C300.451 27.4253 300.372 27.458 300.255 27.458H295.516C295.53 27.906 295.591 28.2957 295.698 28.627C295.81 28.9583 295.964 29.236 296.16 29.46C296.356 29.6793 296.589 29.845 296.86 29.957C297.131 30.0643 297.434 30.118 297.77 30.118C298.083 30.118 298.351 30.083 298.575 30.013C298.804 29.9383 299 29.859 299.163 29.775C299.326 29.691 299.462 29.614 299.569 29.544C299.681 29.4693 299.777 29.432 299.856 29.432C299.959 29.432 300.038 29.4717 300.094 29.551L300.444 30.006ZM307.022 25.169C306.984 25.2203 306.947 25.26 306.91 25.288C306.872 25.316 306.821 25.33 306.756 25.33C306.686 25.33 306.609 25.302 306.525 25.246C306.441 25.1853 306.336 25.12 306.21 25.05C306.088 24.98 305.937 24.917 305.755 24.861C305.577 24.8003 305.358 24.77 305.097 24.77C304.747 24.77 304.439 24.833 304.173 24.959C303.907 25.0803 303.683 25.2577 303.501 25.491C303.323 25.7243 303.188 26.0067 303.095 26.338C303.006 26.6693 302.962 27.0403 302.962 27.451C302.962 27.8803 303.011 28.263 303.109 28.599C303.207 28.9303 303.344 29.2103 303.522 29.439C303.704 29.663 303.921 29.8357 304.173 29.957C304.429 30.0737 304.716 30.132 305.034 30.132C305.337 30.132 305.587 30.097 305.783 30.027C305.979 29.9523 306.14 29.8707 306.266 29.782C306.396 29.6933 306.504 29.614 306.588 29.544C306.676 29.4693 306.763 29.432 306.847 29.432C306.949 29.432 307.029 29.4717 307.085 29.551L307.435 30.006C307.281 30.1973 307.106 30.3607 306.91 30.496C306.714 30.6313 306.501 30.7457 306.273 30.839C306.049 30.9277 305.813 30.993 305.566 31.035C305.318 31.077 305.066 31.098 304.81 31.098C304.366 31.098 303.953 31.0163 303.571 30.853C303.193 30.6897 302.864 30.454 302.584 30.146C302.304 29.8333 302.084 29.4507 301.926 28.998C301.767 28.5453 301.688 28.0297 301.688 27.451C301.688 26.9237 301.76 26.436 301.905 25.988C302.054 25.54 302.269 25.155 302.549 24.833C302.833 24.5063 303.181 24.252 303.592 24.07C304.007 23.888 304.483 23.797 305.02 23.797C305.519 23.797 305.958 23.8787 306.336 24.042C306.718 24.2007 307.057 24.427 307.351 24.721L307.022 25.169ZM310.025 20.689V26.758H310.347C310.44 26.758 310.517 26.7463 310.578 26.723C310.643 26.695 310.711 26.6413 310.781 26.562L313.021 24.161C313.086 24.0817 313.154 24.021 313.224 23.979C313.299 23.9323 313.397 23.909 313.518 23.909H314.645L312.034 26.688C311.908 26.8467 311.773 26.9703 311.628 27.059C311.712 27.115 311.787 27.1803 311.852 27.255C311.922 27.325 311.987 27.4067 312.048 27.5L314.82 31H313.707C313.6 31 313.506 30.9837 313.427 30.951C313.352 30.9137 313.287 30.8483 313.231 30.755L310.9 27.85C310.83 27.752 310.76 27.689 310.69 27.661C310.625 27.6283 310.522 27.612 310.382 27.612H310.025V31H308.772V20.689H310.025ZM323.307 27.808C322.733 27.8267 322.243 27.8733 321.837 27.948C321.435 28.018 321.106 28.1113 320.85 28.228C320.598 28.3447 320.413 28.4823 320.297 28.641C320.185 28.7997 320.129 28.977 320.129 29.173C320.129 29.3597 320.159 29.5207 320.22 29.656C320.28 29.7913 320.362 29.9033 320.465 29.992C320.572 30.076 320.696 30.139 320.836 30.181C320.98 30.2183 321.134 30.237 321.298 30.237C321.517 30.237 321.718 30.216 321.9 30.174C322.082 30.1273 322.252 30.062 322.411 29.978C322.574 29.894 322.728 29.7937 322.873 29.677C323.022 29.5603 323.167 29.4273 323.307 29.278V27.808ZM319.282 24.91C319.674 24.532 320.096 24.2497 320.549 24.063C321.001 23.8763 321.503 23.783 322.054 23.783C322.45 23.783 322.803 23.8483 323.111 23.979C323.419 24.1097 323.678 24.2917 323.888 24.525C324.098 24.7583 324.256 25.0407 324.364 25.372C324.471 25.7033 324.525 26.0673 324.525 26.464V31H323.972C323.85 31 323.757 30.9813 323.692 30.944C323.626 30.902 323.575 30.8227 323.538 30.706L323.398 30.034C323.211 30.2067 323.029 30.3607 322.852 30.496C322.674 30.6267 322.488 30.7387 322.292 30.832C322.096 30.9207 321.886 30.9883 321.662 31.035C321.442 31.0863 321.197 31.112 320.927 31.112C320.651 31.112 320.392 31.0747 320.15 31C319.907 30.9207 319.695 30.804 319.513 30.65C319.335 30.496 319.193 30.3023 319.086 30.069C318.983 29.831 318.932 29.551 318.932 29.229C318.932 28.949 319.009 28.6807 319.163 28.424C319.317 28.1627 319.566 27.9317 319.912 27.731C320.257 27.5303 320.707 27.367 321.263 27.241C321.818 27.1103 322.499 27.0357 323.307 27.017V26.464C323.307 25.9133 323.188 25.498 322.95 25.218C322.712 24.9333 322.364 24.791 321.907 24.791C321.599 24.791 321.34 24.8307 321.13 24.91C320.924 24.9847 320.745 25.071 320.591 25.169C320.441 25.2623 320.311 25.3487 320.199 25.428C320.091 25.5027 319.984 25.54 319.877 25.54C319.793 25.54 319.72 25.519 319.66 25.477C319.599 25.4303 319.548 25.3743 319.506 25.309L319.282 24.91ZM330.553 25.078C330.497 25.1807 330.41 25.232 330.294 25.232C330.224 25.232 330.144 25.2063 330.056 25.155C329.967 25.1037 329.857 25.0477 329.727 24.987C329.601 24.9217 329.449 24.8633 329.272 24.812C329.094 24.756 328.884 24.728 328.642 24.728C328.432 24.728 328.243 24.756 328.075 24.812C327.907 24.8633 327.762 24.9357 327.641 25.029C327.524 25.1223 327.433 25.232 327.368 25.358C327.307 25.4793 327.277 25.6123 327.277 25.757C327.277 25.939 327.328 26.0907 327.431 26.212C327.538 26.3333 327.678 26.4383 327.851 26.527C328.023 26.6157 328.219 26.695 328.439 26.765C328.658 26.8303 328.882 26.9027 329.111 26.982C329.344 27.0567 329.57 27.1407 329.79 27.234C330.009 27.3273 330.205 27.444 330.378 27.584C330.55 27.724 330.688 27.8967 330.791 28.102C330.898 28.3027 330.952 28.5453 330.952 28.83C330.952 29.1567 330.893 29.46 330.777 29.74C330.66 30.0153 330.487 30.2557 330.259 30.461C330.03 30.6617 329.75 30.8203 329.419 30.937C329.087 31.0537 328.705 31.112 328.271 31.112C327.776 31.112 327.328 31.0327 326.927 30.874C326.525 30.7107 326.185 30.503 325.905 30.251L326.199 29.775C326.236 29.7143 326.28 29.6677 326.332 29.635C326.383 29.6023 326.448 29.586 326.528 29.586C326.612 29.586 326.7 29.6187 326.794 29.684C326.887 29.7493 326.999 29.8217 327.13 29.901C327.265 29.9803 327.428 30.0527 327.62 30.118C327.811 30.1833 328.049 30.216 328.334 30.216C328.576 30.216 328.789 30.1857 328.971 30.125C329.153 30.0597 329.304 29.9733 329.426 29.866C329.547 29.7587 329.636 29.635 329.692 29.495C329.752 29.355 329.783 29.2057 329.783 29.047C329.783 28.851 329.729 28.69 329.622 28.564C329.519 28.4333 329.381 28.3237 329.209 28.235C329.036 28.1417 328.838 28.0623 328.614 27.997C328.394 27.927 328.168 27.8547 327.935 27.78C327.706 27.7053 327.48 27.6213 327.256 27.528C327.036 27.43 326.84 27.3087 326.668 27.164C326.495 27.0193 326.355 26.842 326.248 26.632C326.145 26.4173 326.094 26.1583 326.094 25.855C326.094 25.5843 326.15 25.3253 326.262 25.078C326.374 24.826 326.537 24.6067 326.752 24.42C326.966 24.2287 327.23 24.077 327.543 23.965C327.855 23.853 328.212 23.797 328.614 23.797C329.08 23.797 329.498 23.8717 329.867 24.021C330.24 24.1657 330.562 24.3663 330.833 24.623L330.553 25.078ZM336.609 25.078C336.553 25.1807 336.467 25.232 336.35 25.232C336.28 25.232 336.201 25.2063 336.112 25.155C336.024 25.1037 335.914 25.0477 335.783 24.987C335.657 24.9217 335.506 24.8633 335.328 24.812C335.151 24.756 334.941 24.728 334.698 24.728C334.488 24.728 334.299 24.756 334.131 24.812C333.963 24.8633 333.819 24.9357 333.697 25.029C333.581 25.1223 333.49 25.232 333.424 25.358C333.364 25.4793 333.333 25.6123 333.333 25.757C333.333 25.939 333.385 26.0907 333.487 26.212C333.595 26.3333 333.735 26.4383 333.907 26.527C334.08 26.6157 334.276 26.695 334.495 26.765C334.715 26.8303 334.939 26.9027 335.167 26.982C335.401 27.0567 335.627 27.1407 335.846 27.234C336.066 27.3273 336.262 27.444 336.434 27.584C336.607 27.724 336.745 27.8967 336.847 28.102C336.955 28.3027 337.008 28.5453 337.008 28.83C337.008 29.1567 336.95 29.46 336.833 29.74C336.717 30.0153 336.544 30.2557 336.315 30.461C336.087 30.6617 335.807 30.8203 335.475 30.937C335.144 31.0537 334.761 31.112 334.327 31.112C333.833 31.112 333.385 31.0327 332.983 30.874C332.582 30.7107 332.241 30.503 331.961 30.251L332.255 29.775C332.293 29.7143 332.337 29.6677 332.388 29.635C332.44 29.6023 332.505 29.586 332.584 29.586C332.668 29.586 332.757 29.6187 332.85 29.684C332.944 29.7493 333.056 29.8217 333.186 29.901C333.322 29.9803 333.485 30.0527 333.676 30.118C333.868 30.1833 334.106 30.216 334.39 30.216C334.633 30.216 334.845 30.1857 335.027 30.125C335.209 30.0597 335.361 29.9733 335.482 29.866C335.604 29.7587 335.692 29.635 335.748 29.495C335.809 29.355 335.839 29.2057 335.839 29.047C335.839 28.851 335.786 28.69 335.678 28.564C335.576 28.4333 335.438 28.3237 335.265 28.235C335.093 28.1417 334.894 28.0623 334.67 27.997C334.451 27.927 334.225 27.8547 333.991 27.78C333.763 27.7053 333.536 27.6213 333.312 27.528C333.093 27.43 332.897 27.3087 332.724 27.164C332.552 27.0193 332.412 26.842 332.304 26.632C332.202 26.4173 332.15 26.1583 332.15 25.855C332.15 25.5843 332.206 25.3253 332.318 25.078C332.43 24.826 332.594 24.6067 332.808 24.42C333.023 24.2287 333.287 24.077 333.599 23.965C333.912 23.853 334.269 23.797 334.67 23.797C335.137 23.797 335.555 23.8717 335.923 24.021C336.297 24.1657 336.619 24.3663 336.889 24.623L336.609 25.078ZM339.852 23.909V31H338.606V23.909H339.852ZM340.118 21.683C340.118 21.8043 340.092 21.9187 340.041 22.026C339.994 22.1287 339.929 22.222 339.845 22.306C339.765 22.3853 339.67 22.4483 339.558 22.495C339.45 22.5417 339.336 22.565 339.215 22.565C339.093 22.565 338.979 22.5417 338.872 22.495C338.769 22.4483 338.678 22.3853 338.599 22.306C338.519 22.222 338.456 22.1287 338.41 22.026C338.363 21.9187 338.34 21.8043 338.34 21.683C338.34 21.5617 338.363 21.4473 338.41 21.34C338.456 21.228 338.519 21.1323 338.599 21.053C338.678 20.969 338.769 20.9037 338.872 20.857C338.979 20.8103 339.093 20.787 339.215 20.787C339.336 20.787 339.45 20.8103 339.558 20.857C339.67 20.9037 339.765 20.969 339.845 21.053C339.929 21.1323 339.994 21.228 340.041 21.34C340.092 21.4473 340.118 21.5617 340.118 21.683ZM344.37 27.535C344.622 27.535 344.844 27.5 345.035 27.43C345.226 27.36 345.387 27.262 345.518 27.136C345.649 27.01 345.747 26.8607 345.812 26.688C345.877 26.5107 345.91 26.317 345.91 26.107C345.91 25.673 345.777 25.3277 345.511 25.071C345.25 24.8143 344.869 24.686 344.37 24.686C343.866 24.686 343.481 24.8143 343.215 25.071C342.954 25.3277 342.823 25.673 342.823 26.107C342.823 26.317 342.856 26.5107 342.921 26.688C342.991 26.8607 343.091 27.01 343.222 27.136C343.353 27.262 343.514 27.36 343.705 27.43C343.896 27.5 344.118 27.535 344.37 27.535ZM346.617 31.385C346.617 31.2123 346.568 31.0723 346.47 30.965C346.372 30.8577 346.239 30.7737 346.071 30.713C345.908 30.6523 345.716 30.6103 345.497 30.587C345.278 30.559 345.044 30.538 344.797 30.524C344.554 30.51 344.307 30.496 344.055 30.482C343.803 30.468 343.56 30.4447 343.327 30.412C343.066 30.5333 342.851 30.6873 342.683 30.874C342.52 31.056 342.438 31.2707 342.438 31.518C342.438 31.6767 342.478 31.8237 342.557 31.959C342.641 32.099 342.767 32.218 342.935 32.316C343.103 32.4187 343.313 32.498 343.565 32.554C343.822 32.6147 344.123 32.645 344.468 32.645C344.804 32.645 345.105 32.6147 345.371 32.554C345.637 32.4933 345.861 32.407 346.043 32.295C346.23 32.183 346.372 32.05 346.47 31.896C346.568 31.742 346.617 31.5717 346.617 31.385ZM347.884 24.189V24.651C347.884 24.805 347.786 24.903 347.59 24.945L346.785 25.05C346.944 25.358 347.023 25.6987 347.023 26.072C347.023 26.4173 346.955 26.7323 346.82 27.017C346.689 27.297 346.507 27.5373 346.274 27.738C346.041 27.9387 345.761 28.0927 345.434 28.2C345.107 28.3073 344.753 28.361 344.37 28.361C344.039 28.361 343.726 28.3213 343.432 28.242C343.283 28.3353 343.168 28.4357 343.089 28.543C343.01 28.6457 342.97 28.7507 342.97 28.858C342.97 29.026 343.038 29.1543 343.173 29.243C343.313 29.327 343.495 29.3877 343.719 29.425C343.943 29.4623 344.197 29.4857 344.482 29.495C344.771 29.5043 345.065 29.5207 345.364 29.544C345.667 29.5627 345.961 29.5977 346.246 29.649C346.535 29.7003 346.792 29.7843 347.016 29.901C347.24 30.0177 347.42 30.1787 347.555 30.384C347.695 30.5893 347.765 30.8553 347.765 31.182C347.765 31.4853 347.688 31.7793 347.534 32.064C347.385 32.3487 347.168 32.6007 346.883 32.82C346.598 33.044 346.248 33.2213 345.833 33.352C345.422 33.4873 344.958 33.555 344.44 33.555C343.922 33.555 343.469 33.5037 343.082 33.401C342.695 33.2983 342.373 33.1607 342.116 32.988C341.859 32.8153 341.666 32.6147 341.535 32.386C341.409 32.162 341.346 31.9263 341.346 31.679C341.346 31.329 341.456 31.0327 341.675 30.79C341.894 30.5473 342.195 30.3537 342.578 30.209C342.368 30.1157 342.2 29.992 342.074 29.838C341.953 29.6793 341.892 29.467 341.892 29.201C341.892 29.0983 341.911 28.9933 341.948 28.886C341.985 28.774 342.041 28.6643 342.116 28.557C342.195 28.445 342.291 28.34 342.403 28.242C342.515 28.144 342.646 28.0577 342.795 27.983C342.445 27.787 342.172 27.528 341.976 27.206C341.78 26.8793 341.682 26.5013 341.682 26.072C341.682 25.7267 341.747 25.414 341.878 25.134C342.013 24.8493 342.2 24.609 342.438 24.413C342.676 24.2123 342.958 24.0583 343.285 23.951C343.616 23.8437 343.978 23.79 344.37 23.79C344.678 23.79 344.965 23.825 345.231 23.895C345.497 23.9603 345.74 24.0583 345.959 24.189H347.884ZM350.349 24.938C350.503 24.7653 350.666 24.609 350.839 24.469C351.011 24.329 351.193 24.21 351.385 24.112C351.581 24.0093 351.786 23.9323 352.001 23.881C352.22 23.825 352.456 23.797 352.708 23.797C353.095 23.797 353.436 23.8623 353.73 23.993C354.028 24.119 354.276 24.301 354.472 24.539C354.672 24.7723 354.824 25.0547 354.927 25.386C355.029 25.7173 355.081 26.0837 355.081 26.485V31H353.828V26.485C353.828 25.9483 353.704 25.533 353.457 25.239C353.214 24.9403 352.843 24.791 352.344 24.791C351.975 24.791 351.63 24.8797 351.308 25.057C350.99 25.2343 350.696 25.4747 350.426 25.778V31H349.173V23.909H349.922C350.099 23.909 350.209 23.9953 350.251 24.168L350.349 24.938ZM361.725 26.681C361.725 26.3917 361.683 26.128 361.599 25.89C361.52 25.6473 361.401 25.4397 361.242 25.267C361.088 25.0897 360.899 24.9543 360.675 24.861C360.451 24.763 360.197 24.714 359.912 24.714C359.315 24.714 358.841 24.889 358.491 25.239C358.146 25.5843 357.931 26.065 357.847 26.681H361.725ZM362.733 30.006C362.579 30.1927 362.395 30.356 362.18 30.496C361.966 30.6313 361.735 30.7433 361.487 30.832C361.245 30.9207 360.993 30.986 360.731 31.028C360.47 31.0747 360.211 31.098 359.954 31.098C359.464 31.098 359.012 31.0163 358.596 30.853C358.186 30.685 357.829 30.4423 357.525 30.125C357.227 29.803 356.993 29.4063 356.825 28.935C356.657 28.4637 356.573 27.9223 356.573 27.311C356.573 26.8163 356.648 26.3543 356.797 25.925C356.951 25.4957 357.171 25.1247 357.455 24.812C357.74 24.4947 358.088 24.2473 358.498 24.07C358.909 23.888 359.371 23.797 359.884 23.797C360.309 23.797 360.701 23.8693 361.06 24.014C361.424 24.154 361.737 24.3593 361.998 24.63C362.264 24.896 362.472 25.2273 362.621 25.624C362.771 26.016 362.845 26.464 362.845 26.968C362.845 27.164 362.824 27.2947 362.782 27.36C362.74 27.4253 362.661 27.458 362.544 27.458H357.805C357.819 27.906 357.88 28.2957 357.987 28.627C358.099 28.9583 358.253 29.236 358.449 29.46C358.645 29.6793 358.879 29.845 359.149 29.957C359.42 30.0643 359.723 30.118 360.059 30.118C360.372 30.118 360.64 30.083 360.864 30.013C361.093 29.9383 361.289 29.859 361.452 29.775C361.616 29.691 361.751 29.614 361.858 29.544C361.97 29.4693 362.066 29.432 362.145 29.432C362.248 29.432 362.327 29.4717 362.383 29.551L362.733 30.006ZM368.996 25.596C368.762 25.2833 368.51 25.0663 368.24 24.945C367.969 24.819 367.666 24.756 367.33 24.756C366.672 24.756 366.165 24.9917 365.811 25.463C365.456 25.9343 365.279 26.6063 365.279 27.479C365.279 27.941 365.318 28.3377 365.398 28.669C365.477 28.9957 365.594 29.2663 365.748 29.481C365.902 29.691 366.091 29.845 366.315 29.943C366.539 30.041 366.793 30.09 367.078 30.09C367.488 30.09 367.845 29.9967 368.149 29.81C368.457 29.6233 368.739 29.3597 368.996 29.019V25.596ZM370.242 20.689V31H369.5C369.322 31 369.21 30.9137 369.164 30.741L369.052 29.88C368.748 30.244 368.403 30.538 368.016 30.762C367.628 30.986 367.18 31.098 366.672 31.098C366.266 31.098 365.897 31.021 365.566 30.867C365.234 30.7083 364.952 30.4773 364.719 30.174C364.485 29.8707 364.306 29.4927 364.18 29.04C364.054 28.5873 363.991 28.067 363.991 27.479C363.991 26.9563 364.061 26.471 364.201 26.023C364.341 25.5703 364.541 25.1783 364.803 24.847C365.064 24.5157 365.384 24.2567 365.762 24.07C366.144 23.8787 366.574 23.783 367.05 23.783C367.484 23.783 367.855 23.8577 368.163 24.007C368.475 24.1517 368.753 24.3547 368.996 24.616V20.689H370.242ZM379.922 25.078C379.866 25.1807 379.779 25.232 379.663 25.232C379.593 25.232 379.513 25.2063 379.425 25.155C379.336 25.1037 379.226 25.0477 379.096 24.987C378.97 24.9217 378.818 24.8633 378.641 24.812C378.463 24.756 378.253 24.728 378.011 24.728C377.801 24.728 377.612 24.756 377.444 24.812C377.276 24.8633 377.131 24.9357 377.01 25.029C376.893 25.1223 376.802 25.232 376.737 25.358C376.676 25.4793 376.646 25.6123 376.646 25.757C376.646 25.939 376.697 26.0907 376.8 26.212C376.907 26.3333 377.047 26.4383 377.22 26.527C377.392 26.6157 377.588 26.695 377.808 26.765C378.027 26.8303 378.251 26.9027 378.48 26.982C378.713 27.0567 378.939 27.1407 379.159 27.234C379.378 27.3273 379.574 27.444 379.747 27.584C379.919 27.724 380.057 27.8967 380.16 28.102C380.267 28.3027 380.321 28.5453 380.321 28.83C380.321 29.1567 380.262 29.46 380.146 29.74C380.029 30.0153 379.856 30.2557 379.628 30.461C379.399 30.6617 379.119 30.8203 378.788 30.937C378.456 31.0537 378.074 31.112 377.64 31.112C377.145 31.112 376.697 31.0327 376.296 30.874C375.894 30.7107 375.554 30.503 375.274 30.251L375.568 29.775C375.605 29.7143 375.649 29.6677 375.701 29.635C375.752 29.6023 375.817 29.586 375.897 29.586C375.981 29.586 376.069 29.6187 376.163 29.684C376.256 29.7493 376.368 29.8217 376.499 29.901C376.634 29.9803 376.797 30.0527 376.989 30.118C377.18 30.1833 377.418 30.216 377.703 30.216C377.945 30.216 378.158 30.1857 378.34 30.125C378.522 30.0597 378.673 29.9733 378.795 29.866C378.916 29.7587 379.005 29.635 379.061 29.495C379.121 29.355 379.152 29.2057 379.152 29.047C379.152 28.851 379.098 28.69 378.991 28.564C378.888 28.4333 378.75 28.3237 378.578 28.235C378.405 28.1417 378.207 28.0623 377.983 27.997C377.763 27.927 377.537 27.8547 377.304 27.78C377.075 27.7053 376.849 27.6213 376.625 27.528C376.405 27.43 376.209 27.3087 376.037 27.164C375.864 27.0193 375.724 26.842 375.617 26.632C375.514 26.4173 375.463 26.1583 375.463 25.855C375.463 25.5843 375.519 25.3253 375.631 25.078C375.743 24.826 375.906 24.6067 376.121 24.42C376.335 24.2287 376.599 24.077 376.912 23.965C377.224 23.853 377.581 23.797 377.983 23.797C378.449 23.797 378.867 23.8717 379.236 24.021C379.609 24.1657 379.931 24.3663 380.202 24.623L379.922 25.078ZM384.025 31.112C383.465 31.112 383.034 30.9557 382.73 30.643C382.432 30.3303 382.282 29.88 382.282 29.292V24.952H381.428C381.354 24.952 381.291 24.931 381.239 24.889C381.188 24.8423 381.162 24.7723 381.162 24.679V24.182L382.324 24.035L382.611 21.844C382.625 21.774 382.656 21.718 382.702 21.676C382.754 21.6293 382.819 21.606 382.898 21.606H383.528V24.049H385.579V24.952H383.528V29.208C383.528 29.5067 383.601 29.7283 383.745 29.873C383.89 30.0177 384.077 30.09 384.305 30.09C384.436 30.09 384.548 30.0737 384.641 30.041C384.739 30.0037 384.823 29.964 384.893 29.922C384.963 29.88 385.022 29.8427 385.068 29.81C385.12 29.7727 385.164 29.754 385.201 29.754C385.267 29.754 385.325 29.7937 385.376 29.873L385.74 30.468C385.526 30.6687 385.267 30.8273 384.963 30.944C384.66 31.056 384.347 31.112 384.025 31.112ZM390.709 27.808C390.135 27.8267 389.645 27.8733 389.239 27.948C388.838 28.018 388.509 28.1113 388.252 28.228C388 28.3447 387.816 28.4823 387.699 28.641C387.587 28.7997 387.531 28.977 387.531 29.173C387.531 29.3597 387.561 29.5207 387.622 29.656C387.683 29.7913 387.764 29.9033 387.867 29.992C387.974 30.076 388.098 30.139 388.238 30.181C388.383 30.2183 388.537 30.237 388.7 30.237C388.919 30.237 389.12 30.216 389.302 30.174C389.484 30.1273 389.654 30.062 389.813 29.978C389.976 29.894 390.13 29.7937 390.275 29.677C390.424 29.5603 390.569 29.4273 390.709 29.278V27.808ZM386.684 24.91C387.076 24.532 387.498 24.2497 387.951 24.063C388.404 23.8763 388.905 23.783 389.456 23.783C389.853 23.783 390.205 23.8483 390.513 23.979C390.821 24.1097 391.08 24.2917 391.29 24.525C391.5 24.7583 391.659 25.0407 391.766 25.372C391.873 25.7033 391.927 26.0673 391.927 26.464V31H391.374C391.253 31 391.159 30.9813 391.094 30.944C391.029 30.902 390.977 30.8227 390.94 30.706L390.8 30.034C390.613 30.2067 390.431 30.3607 390.254 30.496C390.077 30.6267 389.89 30.7387 389.694 30.832C389.498 30.9207 389.288 30.9883 389.064 31.035C388.845 31.0863 388.6 31.112 388.329 31.112C388.054 31.112 387.795 31.0747 387.552 31C387.309 30.9207 387.097 30.804 386.915 30.65C386.738 30.496 386.595 30.3023 386.488 30.069C386.385 29.831 386.334 29.551 386.334 29.229C386.334 28.949 386.411 28.6807 386.565 28.424C386.719 28.1627 386.969 27.9317 387.314 27.731C387.659 27.5303 388.11 27.367 388.665 27.241C389.22 27.1103 389.902 27.0357 390.709 27.017V26.464C390.709 25.9133 390.59 25.498 390.352 25.218C390.114 24.9333 389.766 24.791 389.309 24.791C389.001 24.791 388.742 24.8307 388.532 24.91C388.327 24.9847 388.147 25.071 387.993 25.169C387.844 25.2623 387.713 25.3487 387.601 25.428C387.494 25.5027 387.386 25.54 387.279 25.54C387.195 25.54 387.123 25.519 387.062 25.477C387.001 25.4303 386.95 25.3743 386.908 25.309L386.684 24.91ZM395.113 20.689V31H393.867V20.689H395.113ZM398.421 20.689V31H397.175V20.689H398.421ZM316.435 41.938C316.589 41.7653 316.753 41.609 316.925 41.469C317.098 41.329 317.28 41.21 317.471 41.112C317.667 41.0093 317.873 40.9323 318.087 40.881C318.307 40.825 318.542 40.797 318.794 40.797C319.182 40.797 319.522 40.8623 319.816 40.993C320.115 41.119 320.362 41.301 320.558 41.539C320.759 41.7723 320.911 42.0547 321.013 42.386C321.116 42.7173 321.167 43.0837 321.167 43.485V48H319.914V43.485C319.914 42.9483 319.791 42.533 319.543 42.239C319.301 41.9403 318.93 41.791 318.43 41.791C318.062 41.791 317.716 41.8797 317.394 42.057C317.077 42.2343 316.783 42.4747 316.512 42.778V48H315.259V40.909H316.008C316.186 40.909 316.295 40.9953 316.337 41.168L316.435 41.938ZM328.897 40.909V48H328.155C327.978 48 327.866 47.9137 327.819 47.741L327.721 46.978C327.413 47.3187 327.068 47.594 326.685 47.804C326.302 48.0093 325.864 48.112 325.369 48.112C324.982 48.112 324.639 48.049 324.34 47.923C324.046 47.7923 323.799 47.6103 323.598 47.377C323.397 47.1437 323.246 46.8613 323.143 46.53C323.045 46.1987 322.996 45.8323 322.996 45.431V40.909H324.242V45.431C324.242 45.9677 324.363 46.383 324.606 46.677C324.853 46.971 325.229 47.118 325.733 47.118C326.102 47.118 326.445 47.0317 326.762 46.859C327.084 46.6817 327.38 46.439 327.651 46.131V40.909H328.897ZM330.873 48V40.909H331.622C331.799 40.909 331.909 40.9953 331.951 41.168L332.042 41.896C332.303 41.574 332.597 41.3103 332.924 41.105C333.25 40.8997 333.628 40.797 334.058 40.797C334.534 40.797 334.919 40.93 335.213 41.196C335.511 41.462 335.726 41.8213 335.857 42.274C335.959 42.0173 336.09 41.7957 336.249 41.609C336.412 41.4223 336.594 41.2683 336.795 41.147C336.995 41.0257 337.208 40.937 337.432 40.881C337.66 40.825 337.891 40.797 338.125 40.797C338.498 40.797 338.829 40.8577 339.119 40.979C339.413 41.0957 339.66 41.2683 339.861 41.497C340.066 41.7257 340.222 42.008 340.33 42.344C340.437 42.6753 340.491 43.0557 340.491 43.485V48H339.238V43.485C339.238 42.9297 339.116 42.5097 338.874 42.225C338.631 41.9357 338.281 41.791 337.824 41.791C337.618 41.791 337.422 41.8283 337.236 41.903C337.054 41.973 336.893 42.078 336.753 42.218C336.613 42.358 336.501 42.5353 336.417 42.75C336.337 42.96 336.298 43.205 336.298 43.485V48H335.045V43.485C335.045 42.9157 334.93 42.491 334.702 42.211C334.473 41.931 334.139 41.791 333.701 41.791C333.393 41.791 333.108 41.875 332.847 42.043C332.585 42.2063 332.345 42.4303 332.126 42.715V48H330.873ZM343.637 46.292C343.866 46.6 344.116 46.817 344.386 46.943C344.662 47.069 344.963 47.132 345.289 47.132C345.957 47.132 346.468 46.8963 346.822 46.425C347.177 45.9537 347.354 45.2513 347.354 44.318C347.354 43.45 347.196 42.813 346.878 42.407C346.566 41.9963 346.118 41.791 345.534 41.791C345.128 41.791 344.774 41.8843 344.47 42.071C344.172 42.2577 343.894 42.5213 343.637 42.862V46.292ZM343.637 41.931C343.936 41.5857 344.272 41.3103 344.645 41.105C345.023 40.8997 345.457 40.797 345.947 40.797C346.363 40.797 346.736 40.8763 347.067 41.035C347.403 41.1937 347.688 41.4247 347.921 41.728C348.155 42.0267 348.332 42.3907 348.453 42.82C348.579 43.2493 348.642 43.7323 348.642 44.269C348.642 44.843 348.572 45.3657 348.432 45.837C348.292 46.3083 348.089 46.712 347.823 47.048C347.562 47.3793 347.242 47.6383 346.864 47.825C346.486 48.007 346.062 48.098 345.59 48.098C345.124 48.098 344.729 48.0117 344.407 47.839C344.09 47.6617 343.812 47.412 343.574 47.09L343.511 47.734C343.474 47.9113 343.367 48 343.189 48H342.384V37.689H343.637V41.931ZM354.964 43.681C354.964 43.3917 354.922 43.128 354.838 42.89C354.759 42.6473 354.64 42.4397 354.481 42.267C354.327 42.0897 354.138 41.9543 353.914 41.861C353.69 41.763 353.436 41.714 353.151 41.714C352.554 41.714 352.08 41.889 351.73 42.239C351.385 42.5843 351.17 43.065 351.086 43.681H354.964ZM355.972 47.006C355.818 47.1927 355.634 47.356 355.419 47.496C355.205 47.6313 354.974 47.7433 354.726 47.832C354.484 47.9207 354.232 47.986 353.97 48.028C353.709 48.0747 353.45 48.098 353.193 48.098C352.703 48.098 352.251 48.0163 351.835 47.853C351.425 47.685 351.068 47.4423 350.764 47.125C350.466 46.803 350.232 46.4063 350.064 45.935C349.896 45.4637 349.812 44.9223 349.812 44.311C349.812 43.8163 349.887 43.3543 350.036 42.925C350.19 42.4957 350.41 42.1247 350.694 41.812C350.979 41.4947 351.327 41.2473 351.737 41.07C352.148 40.888 352.61 40.797 353.123 40.797C353.548 40.797 353.94 40.8693 354.299 41.014C354.663 41.154 354.976 41.3593 355.237 41.63C355.503 41.896 355.711 42.2273 355.86 42.624C356.01 43.016 356.084 43.464 356.084 43.968C356.084 44.164 356.063 44.2947 356.021 44.36C355.979 44.4253 355.9 44.458 355.783 44.458H351.044C351.058 44.906 351.119 45.2957 351.226 45.627C351.338 45.9583 351.492 46.236 351.688 46.46C351.884 46.6793 352.118 46.845 352.388 46.957C352.659 47.0643 352.962 47.118 353.298 47.118C353.611 47.118 353.879 47.083 354.103 47.013C354.332 46.9383 354.528 46.859 354.691 46.775C354.855 46.691 354.99 46.614 355.097 46.544C355.209 46.4693 355.305 46.432 355.384 46.432C355.487 46.432 355.566 46.4717 355.622 46.551L355.972 47.006ZM358.798 42.33C359.022 41.8447 359.297 41.4667 359.624 41.196C359.951 40.9207 360.35 40.783 360.821 40.783C360.97 40.783 361.113 40.7993 361.248 40.832C361.388 40.8647 361.512 40.916 361.619 40.986L361.528 41.917C361.5 42.0337 361.43 42.092 361.318 42.092C361.253 42.092 361.157 42.078 361.031 42.05C360.905 42.022 360.763 42.008 360.604 42.008C360.38 42.008 360.179 42.0407 360.002 42.106C359.829 42.1713 359.673 42.2693 359.533 42.4C359.398 42.526 359.274 42.6847 359.162 42.876C359.055 43.0627 358.957 43.2773 358.868 43.52V48H357.615V40.909H358.329C358.464 40.909 358.558 40.9347 358.609 40.986C358.66 41.0373 358.695 41.126 358.714 41.252L358.798 42.33Z" fill="white"/>
<rect x="476" width="110" height="68" rx="4" fill="#00567A"/>
<path d="M517.018 34.177V38.027C516.514 38.391 515.975 38.664 515.401 38.846C514.832 39.0233 514.206 39.112 513.525 39.112C512.718 39.112 511.99 38.9883 511.341 38.741C510.692 38.489 510.137 38.139 509.675 37.691C509.218 37.2383 508.865 36.697 508.618 36.067C508.371 35.437 508.247 34.744 508.247 33.988C508.247 33.2227 508.366 32.525 508.604 31.895C508.847 31.265 509.19 30.726 509.633 30.278C510.076 29.8253 510.615 29.4753 511.25 29.228C511.885 28.9807 512.594 28.857 513.378 28.857C513.775 28.857 514.143 28.8873 514.484 28.948C514.825 29.004 515.14 29.088 515.429 29.2C515.718 29.3073 515.987 29.4403 516.234 29.599C516.481 29.753 516.712 29.928 516.927 30.124L516.542 30.74C516.481 30.8333 516.402 30.894 516.304 30.922C516.211 30.9453 516.106 30.922 515.989 30.852C515.877 30.7867 515.749 30.7073 515.604 30.614C515.459 30.5207 515.282 30.432 515.072 30.348C514.867 30.2593 514.622 30.1847 514.337 30.124C514.057 30.0633 513.723 30.033 513.336 30.033C512.771 30.033 512.26 30.1263 511.803 30.313C511.346 30.495 510.956 30.7587 510.634 31.104C510.312 31.4447 510.065 31.86 509.892 32.35C509.719 32.8353 509.633 33.3813 509.633 33.988C509.633 34.618 509.722 35.1827 509.899 35.682C510.081 36.1767 510.338 36.599 510.669 36.949C511.005 37.2943 511.411 37.558 511.887 37.74C512.363 37.922 512.897 38.013 513.49 38.013C513.957 38.013 514.37 37.9617 514.729 37.859C515.093 37.7517 515.448 37.6047 515.793 37.418V35.213H514.232C514.143 35.213 514.071 35.1873 514.015 35.136C513.964 35.0847 513.938 35.0217 513.938 34.947V34.177H517.018ZM521.709 31.797C522.227 31.797 522.694 31.8833 523.109 32.056C523.525 32.2287 523.879 32.4737 524.173 32.791C524.467 33.1083 524.691 33.4933 524.845 33.946C525.004 34.394 525.083 34.8957 525.083 35.451C525.083 36.011 525.004 36.515 524.845 36.963C524.691 37.411 524.467 37.7937 524.173 38.111C523.879 38.4283 523.525 38.6733 523.109 38.846C522.694 39.014 522.227 39.098 521.709 39.098C521.187 39.098 520.715 39.014 520.295 38.846C519.88 38.6733 519.525 38.4283 519.231 38.111C518.937 37.7937 518.711 37.411 518.552 36.963C518.398 36.515 518.321 36.011 518.321 35.451C518.321 34.8957 518.398 34.394 518.552 33.946C518.711 33.4933 518.937 33.1083 519.231 32.791C519.525 32.4737 519.88 32.2287 520.295 32.056C520.715 31.8833 521.187 31.797 521.709 31.797ZM521.709 38.125C522.409 38.125 522.932 37.8917 523.277 37.425C523.623 36.9537 523.795 36.298 523.795 35.458C523.795 34.6133 523.623 33.9553 523.277 33.484C522.932 33.0127 522.409 32.777 521.709 32.777C521.355 32.777 521.044 32.8377 520.778 32.959C520.517 33.0803 520.298 33.2553 520.12 33.484C519.948 33.7127 519.817 33.995 519.728 34.331C519.644 34.6623 519.602 35.038 519.602 35.458C519.602 36.298 519.775 36.9537 520.12 37.425C520.47 37.8917 521 38.125 521.709 38.125ZM532.423 39.112C531.863 39.112 531.431 38.9557 531.128 38.643C530.829 38.3303 530.68 37.88 530.68 37.292V32.952H529.826C529.751 32.952 529.688 32.931 529.637 32.889C529.585 32.8423 529.56 32.7723 529.56 32.679V32.182L530.722 32.035L531.009 29.844C531.023 29.774 531.053 29.718 531.1 29.676C531.151 29.6293 531.216 29.606 531.296 29.606H531.926V32.049H533.977V32.952H531.926V37.208C531.926 37.5067 531.998 37.7283 532.143 37.873C532.287 38.0177 532.474 38.09 532.703 38.09C532.833 38.09 532.945 38.0737 533.039 38.041C533.137 38.0037 533.221 37.964 533.291 37.922C533.361 37.88 533.419 37.8427 533.466 37.81C533.517 37.7727 533.561 37.754 533.599 37.754C533.664 37.754 533.722 37.7937 533.774 37.873L534.138 38.468C533.923 38.6687 533.664 38.8273 533.361 38.944C533.057 39.056 532.745 39.112 532.423 39.112ZM538.211 31.797C538.729 31.797 539.196 31.8833 539.611 32.056C540.027 32.2287 540.381 32.4737 540.675 32.791C540.969 33.1083 541.193 33.4933 541.347 33.946C541.506 34.394 541.585 34.8957 541.585 35.451C541.585 36.011 541.506 36.515 541.347 36.963C541.193 37.411 540.969 37.7937 540.675 38.111C540.381 38.4283 540.027 38.6733 539.611 38.846C539.196 39.014 538.729 39.098 538.211 39.098C537.689 39.098 537.217 39.014 536.797 38.846C536.382 38.6733 536.027 38.4283 535.733 38.111C535.439 37.7937 535.213 37.411 535.054 36.963C534.9 36.515 534.823 36.011 534.823 35.451C534.823 34.8957 534.9 34.394 535.054 33.946C535.213 33.4933 535.439 33.1083 535.733 32.791C536.027 32.4737 536.382 32.2287 536.797 32.056C537.217 31.8833 537.689 31.797 538.211 31.797ZM538.211 38.125C538.911 38.125 539.434 37.8917 539.779 37.425C540.125 36.9537 540.297 36.298 540.297 35.458C540.297 34.6133 540.125 33.9553 539.779 33.484C539.434 33.0127 538.911 32.777 538.211 32.777C537.857 32.777 537.546 32.8377 537.28 32.959C537.019 33.0803 536.8 33.2553 536.622 33.484C536.45 33.7127 536.319 33.995 536.23 34.331C536.146 34.6623 536.104 35.038 536.104 35.458C536.104 36.298 536.277 36.9537 536.622 37.425C536.972 37.8917 537.502 38.125 538.211 38.125ZM550.878 33.078C550.822 33.1807 550.735 33.232 550.619 33.232C550.549 33.232 550.469 33.2063 550.381 33.155C550.292 33.1037 550.182 33.0477 550.052 32.987C549.926 32.9217 549.774 32.8633 549.597 32.812C549.419 32.756 549.209 32.728 548.967 32.728C548.757 32.728 548.568 32.756 548.4 32.812C548.232 32.8633 548.087 32.9357 547.966 33.029C547.849 33.1223 547.758 33.232 547.693 33.358C547.632 33.4793 547.602 33.6123 547.602 33.757C547.602 33.939 547.653 34.0907 547.756 34.212C547.863 34.3333 548.003 34.4383 548.176 34.527C548.348 34.6157 548.544 34.695 548.764 34.765C548.983 34.8303 549.207 34.9027 549.436 34.982C549.669 35.0567 549.895 35.1407 550.115 35.234C550.334 35.3273 550.53 35.444 550.703 35.584C550.875 35.724 551.013 35.8967 551.116 36.102C551.223 36.3027 551.277 36.5453 551.277 36.83C551.277 37.1567 551.218 37.46 551.102 37.74C550.985 38.0153 550.812 38.2557 550.584 38.461C550.355 38.6617 550.075 38.8203 549.744 38.937C549.412 39.0537 549.03 39.112 548.596 39.112C548.101 39.112 547.653 39.0327 547.252 38.874C546.85 38.7107 546.51 38.503 546.23 38.251L546.524 37.775C546.561 37.7143 546.605 37.6677 546.657 37.635C546.708 37.6023 546.773 37.586 546.853 37.586C546.937 37.586 547.025 37.6187 547.119 37.684C547.212 37.7493 547.324 37.8217 547.455 37.901C547.59 37.9803 547.753 38.0527 547.945 38.118C548.136 38.1833 548.374 38.216 548.659 38.216C548.901 38.216 549.114 38.1857 549.296 38.125C549.478 38.0597 549.629 37.9733 549.751 37.866C549.872 37.7587 549.961 37.635 550.017 37.495C550.077 37.355 550.108 37.2057 550.108 37.047C550.108 36.851 550.054 36.69 549.947 36.564C549.844 36.4333 549.706 36.3237 549.534 36.235C549.361 36.1417 549.163 36.0623 548.939 35.997C548.719 35.927 548.493 35.8547 548.26 35.78C548.031 35.7053 547.805 35.6213 547.581 35.528C547.361 35.43 547.165 35.3087 546.993 35.164C546.82 35.0193 546.68 34.842 546.573 34.632C546.47 34.4173 546.419 34.1583 546.419 33.855C546.419 33.5843 546.475 33.3253 546.587 33.078C546.699 32.826 546.862 32.6067 547.077 32.42C547.291 32.2287 547.555 32.077 547.868 31.965C548.18 31.853 548.537 31.797 548.939 31.797C549.405 31.797 549.823 31.8717 550.192 32.021C550.565 32.1657 550.887 32.3663 551.158 32.623L550.878 33.078ZM554.981 39.112C554.421 39.112 553.99 38.9557 553.686 38.643C553.388 38.3303 553.238 37.88 553.238 37.292V32.952H552.384C552.31 32.952 552.247 32.931 552.195 32.889C552.144 32.8423 552.118 32.7723 552.118 32.679V32.182L553.28 32.035L553.567 29.844C553.581 29.774 553.612 29.718 553.658 29.676C553.71 29.6293 553.775 29.606 553.854 29.606H554.484V32.049H556.535V32.952H554.484V37.208C554.484 37.5067 554.557 37.7283 554.701 37.873C554.846 38.0177 555.033 38.09 555.261 38.09C555.392 38.09 555.504 38.0737 555.597 38.041C555.695 38.0037 555.779 37.964 555.849 37.922C555.919 37.88 555.978 37.8427 556.024 37.81C556.076 37.7727 556.12 37.754 556.157 37.754C556.223 37.754 556.281 37.7937 556.332 37.873L556.696 38.468C556.482 38.6687 556.223 38.8273 555.919 38.944C555.616 39.056 555.303 39.112 554.981 39.112ZM561.665 35.808C561.091 35.8267 560.601 35.8733 560.195 35.948C559.794 36.018 559.465 36.1113 559.208 36.228C558.956 36.3447 558.772 36.4823 558.655 36.641C558.543 36.7997 558.487 36.977 558.487 37.173C558.487 37.3597 558.517 37.5207 558.578 37.656C558.639 37.7913 558.72 37.9033 558.823 37.992C558.93 38.076 559.054 38.139 559.194 38.181C559.339 38.2183 559.493 38.237 559.656 38.237C559.875 38.237 560.076 38.216 560.258 38.174C560.44 38.1273 560.61 38.062 560.769 37.978C560.932 37.894 561.086 37.7937 561.231 37.677C561.38 37.5603 561.525 37.4273 561.665 37.278V35.808ZM557.64 32.91C558.032 32.532 558.454 32.2497 558.907 32.063C559.36 31.8763 559.861 31.783 560.412 31.783C560.809 31.783 561.161 31.8483 561.469 31.979C561.777 32.1097 562.036 32.2917 562.246 32.525C562.456 32.7583 562.615 33.0407 562.722 33.372C562.829 33.7033 562.883 34.0673 562.883 34.464V39H562.33C562.209 39 562.115 38.9813 562.05 38.944C561.985 38.902 561.933 38.8227 561.896 38.706L561.756 38.034C561.569 38.2067 561.387 38.3607 561.21 38.496C561.033 38.6267 560.846 38.7387 560.65 38.832C560.454 38.9207 560.244 38.9883 560.02 39.035C559.801 39.0863 559.556 39.112 559.285 39.112C559.01 39.112 558.751 39.0747 558.508 39C558.265 38.9207 558.053 38.804 557.871 38.65C557.694 38.496 557.551 38.3023 557.444 38.069C557.341 37.831 557.29 37.551 557.29 37.229C557.29 36.949 557.367 36.6807 557.521 36.424C557.675 36.1627 557.925 35.9317 558.27 35.731C558.615 35.5303 559.066 35.367 559.621 35.241C560.176 35.1103 560.858 35.0357 561.665 35.017V34.464C561.665 33.9133 561.546 33.498 561.308 33.218C561.07 32.9333 560.722 32.791 560.265 32.791C559.957 32.791 559.698 32.8307 559.488 32.91C559.283 32.9847 559.103 33.071 558.949 33.169C558.8 33.2623 558.669 33.3487 558.557 33.428C558.45 33.5027 558.342 33.54 558.235 33.54C558.151 33.54 558.079 33.519 558.018 33.477C557.957 33.4303 557.906 33.3743 557.864 33.309L557.64 32.91ZM566.069 28.689V39H564.823V28.689H566.069ZM569.378 28.689V39H568.132V28.689H569.378Z" fill="white"/>
</svg>
