<svg width="100" height="100" viewBox="0 0 100 100" fill="none" xmlns="http://www.w3.org/2000/svg">
<g clip-path="url(#clip0)">
<path d="M50 61.2903C45.5535 61.2903 41.9355 64.9083 41.9355 69.3548C41.9355 73.8013 45.5535 77.4193 50 77.4193C54.4465 77.4193 58.0645 73.8013 58.0645 69.3548C58.0645 64.9083 54.4465 61.2903 50 61.2903ZM50 74.1935C47.3326 74.1935 45.1613 72.0222 45.1613 69.3548C45.1613 66.6874 47.3326 64.5161 50 64.5161C52.6674 64.5161 54.8387 66.6874 54.8387 69.3548C54.8387 72.0222 52.6674 74.1935 50 74.1935Z" fill="black"/>
<path d="M48.3871 6.45166H61.2903V9.67747H48.3871V6.45166Z" fill="black"/>
<path d="M48.3871 12.9032H61.2903V16.129H48.3871V12.9032Z" fill="black"/>
<path d="M38.7097 19.3549H61.2903V22.5807H38.7097V19.3549Z" fill="black"/>
<path d="M38.7097 25.8064H61.2903V29.0322H38.7097V25.8064Z" fill="black"/>
<path d="M38.7097 38.7097H61.2903V41.9355H38.7097V38.7097Z" fill="black"/>
<path d="M100 51.6129V38.7097H77.4194V51.6129H87.0968V67.7419H67.7419V64.9658L63.7821 63.6451L65.6486 59.9129L59.4419 53.7062L55.7082 55.5743L54.389 51.6129H51.6129V41.9355H67.7419V22.5806H87.0968V31.5902L83.3984 27.8919L81.1177 30.1726L88.7097 37.7646L96.3017 30.1726L94.0209 27.8919L90.3226 31.5902V19.3548H67.7419V0H42.8805L32.2581 10.6225V19.3548H9.67742V31.5902L5.97908 27.8919L3.69834 30.1726L11.2903 37.7646L18.8823 30.1726L16.6016 27.8919L12.9032 31.5902V22.5806H32.2581V41.9355H48.3871V51.6129H45.611L44.2918 55.5743L40.5581 53.7062L34.3514 59.9129L36.2179 63.6451L32.2581 64.9658V67.7419H12.9032V51.6129H22.5806V38.7097H0V51.6129H9.67742V77.6485C6.9013 78.3691 4.83871 80.8743 4.83871 83.871C4.83871 87.4291 7.73217 90.3226 11.2903 90.3226C14.8485 90.3226 17.7419 87.4291 17.7419 83.871C17.7419 80.8743 15.6793 78.3691 12.9032 77.6485V70.9677H22.5806V90.6195C20.7079 91.2873 19.3548 93.0617 19.3548 95.1613C19.3548 97.8287 21.5261 100 24.1935 100C26.861 100 29.0323 97.8287 29.0323 95.1613C29.0323 93.0617 27.6792 91.2873 25.8065 90.6195V70.9677H32.2581V73.7439L36.2179 75.0646L34.3514 78.7968L40.5581 85.0035L44.2918 83.1354L45.611 87.0968H54.3874L55.7066 83.1354L59.4404 85.0035L65.647 78.7968L63.7806 75.0646L67.7419 73.7439V70.9677H74.1936V90.6195C72.3208 91.2873 70.9677 93.0617 70.9677 95.1613C70.9677 97.8287 73.139 100 75.8064 100C78.4739 100 80.6452 97.8287 80.6452 95.1613C80.6452 93.0617 79.2922 91.2873 77.4194 90.6195V70.9677H87.0968V77.6485C84.3207 78.3691 82.2581 80.8743 82.2581 83.871C82.2581 87.4291 85.1515 90.3226 88.7097 90.3226C92.2678 90.3226 95.1613 87.4291 95.1613 83.871C95.1613 80.8743 93.0987 78.3691 90.3226 77.6485V51.6129H100ZM41.9355 5.50655V9.67742H37.7646L41.9355 5.50655ZM35.4839 12.9032H45.1613V3.22581H64.5161V38.7097H35.4839V12.9032ZM3.22581 41.9355H19.3548V48.3871H3.22581V41.9355ZM14.5161 83.871C14.5161 85.65 13.0694 87.0968 11.2903 87.0968C9.51125 87.0968 8.06452 85.65 8.06452 83.871C8.06452 82.0919 9.51125 80.6452 11.2903 80.6452C13.0694 80.6452 14.5161 82.0919 14.5161 83.871ZM24.1935 96.7742C23.3036 96.7742 22.5806 96.0496 22.5806 95.1613C22.5806 94.2729 23.3036 93.5484 24.1935 93.5484C25.0835 93.5484 25.8065 94.2729 25.8065 95.1613C25.8065 96.0496 25.0835 96.7742 24.1935 96.7742ZM64.5161 71.4174L60.8162 72.6515L60.5437 73.3627C60.4626 73.569 60.3823 73.7746 60.2933 73.9738L59.9806 74.6724L61.7243 78.1597L58.8064 81.0775L55.3191 79.3339L54.6213 79.6465C54.4229 79.7355 54.2213 79.8159 54.0165 79.8938L53.2983 80.1648L52.0626 83.871H47.9358L46.7002 80.1648L45.9819 79.8938C45.7772 79.8159 45.5755 79.7355 45.3771 79.6465L44.6793 79.3339L41.192 81.0775L38.2742 78.1597L40.0178 74.6724L39.7051 73.9738C39.6146 73.7722 39.5358 73.569 39.4547 73.3627L39.1822 72.6515L35.4839 71.4174V67.2907L39.1838 66.0566L39.4563 65.3454C39.5374 65.1391 39.6177 64.9335 39.7067 64.7335L40.0194 64.0357L38.2757 60.5485L41.1936 57.6306L44.6809 59.3742L45.3787 59.0616C45.5771 58.9726 45.7787 58.8922 45.9835 58.8143L46.7017 58.5433L47.9374 54.8387H52.0642L53.2998 58.5449L54.0181 58.8158C54.2228 58.8938 54.4245 58.9741 54.6229 59.0631L55.3207 59.3758L58.808 57.6322L61.7258 60.55L59.9822 64.0373L60.2949 64.7359C60.3854 64.9375 60.4642 65.1407 60.5453 65.347L60.8178 66.0582L64.5161 67.2922V71.4174ZM75.8064 96.7742C74.9165 96.7742 74.1936 96.0496 74.1936 95.1613C74.1936 94.2729 74.9165 93.5484 75.8064 93.5484C76.6964 93.5484 77.4194 94.2729 77.4194 95.1613C77.4194 96.0496 76.6964 96.7742 75.8064 96.7742ZM91.9355 83.871C91.9355 85.65 90.4888 87.0968 88.7097 87.0968C86.9306 87.0968 85.4839 85.65 85.4839 83.871C85.4839 82.0919 86.9306 80.6452 88.7097 80.6452C90.4888 80.6452 91.9355 82.0919 91.9355 83.871ZM80.6452 41.9355H96.7742V48.3871H80.6452V41.9355Z" fill="black"/>
</g>
<defs>
<clipPath id="clip0">
<rect width="100" height="100" fill="white"/>
</clipPath>
</defs>
</svg>
