<svg width="52" height="52" viewBox="0 0 52 52" fill="none" xmlns="http://www.w3.org/2000/svg">
<circle cx="26" cy="26" r="26" fill="url(#paint0_linear)"/>
<path d="M7.91629 37.2C7.38295 37.2 6.90295 37.04 6.47629 36.72C6.04962 36.4 5.75629 36 5.59629 35.52L-0.0837142 18.88C-0.163714 18.64 -0.203714 18.4133 -0.203714 18.2C-0.203714 17.6933 -0.0303809 17.2667 0.316286 16.92C0.662952 16.5733 1.08962 16.4 1.59629 16.4C1.96962 16.4 2.30295 16.5067 2.59629 16.72C2.91629 16.9067 3.12962 17.16 3.23629 17.48L7.91629 32.88L12.5563 17.84C12.6896 17.4133 12.9296 17.0667 13.2763 16.8C13.6496 16.5333 14.063 16.4 14.5163 16.4C14.9696 16.4 15.3696 16.5333 15.7163 16.8C16.0896 17.0667 16.343 17.4133 16.4763 17.84L21.1163 32.88L25.7963 17.48C25.903 17.16 26.103 16.9067 26.3963 16.72C26.7163 16.5067 27.063 16.4 27.4363 16.4C27.943 16.4 28.3696 16.5733 28.7163 16.92C29.063 17.2667 29.2363 17.6933 29.2363 18.2C29.2363 18.4133 29.1963 18.64 29.1163 18.88L23.4363 35.52C23.2763 36 22.983 36.4 22.5563 36.72C22.1296 37.04 21.6496 37.2 21.1163 37.2C20.583 37.2 20.103 37.04 19.6763 36.72C19.2496 36.4 18.943 35.9867 18.7563 35.48L14.5163 22.24L10.2763 35.48C10.0896 35.9867 9.78295 36.4 9.35629 36.72C8.92962 37.04 8.44962 37.2 7.91629 37.2Z" transform="translate(12.4517 1.45166)" fill="black"/>
<path d="M7.91629 37.2C7.38295 37.2 6.90295 37.04 6.47629 36.72C6.04962 36.4 5.75629 36 5.59629 35.52L-0.0837142 18.88C-0.163714 18.64 -0.203714 18.4133 -0.203714 18.2C-0.203714 17.6933 -0.0303809 17.2667 0.316286 16.92C0.662952 16.5733 1.08962 16.4 1.59629 16.4C1.96962 16.4 2.30295 16.5067 2.59629 16.72C2.91629 16.9067 3.12962 17.16 3.23629 17.48L7.91629 32.88L12.5563 17.84C12.6896 17.4133 12.9296 17.0667 13.2763 16.8C13.6496 16.5333 14.063 16.4 14.5163 16.4C14.9696 16.4 15.3696 16.5333 15.7163 16.8C16.0896 17.0667 16.343 17.4133 16.4763 17.84L21.1163 32.88L25.7963 17.48C25.903 17.16 26.103 16.9067 26.3963 16.72C26.7163 16.5067 27.063 16.4 27.4363 16.4C27.943 16.4 28.3696 16.5733 28.7163 16.92C29.063 17.2667 29.2363 17.6933 29.2363 18.2C29.2363 18.4133 29.1963 18.64 29.1163 18.88L23.4363 35.52C23.2763 36 22.983 36.4 22.5563 36.72C22.1296 37.04 21.6496 37.2 21.1163 37.2C20.583 37.2 20.103 37.04 19.6763 36.72C19.2496 36.4 18.943 35.9867 18.7563 35.48L14.5163 22.24L10.2763 35.48C10.0896 35.9867 9.78295 36.4 9.35629 36.72C8.92962 37.04 8.44962 37.2 7.91629 37.2Z" transform="translate(11)" fill="white"/>
<defs>
<linearGradient id="paint0_linear" x2="1" gradientUnits="userSpaceOnUse" gradientTransform="translate(52) scale(52) rotate(90)">
<stop stop-color="#2876BA"/>
<stop offset="1" stop-color="#2B6BAC"/>
</linearGradient>
</defs>
</svg>
